<?xml version="1.0" standalone="no"?>
<!DOCTYPE svg PUBLIC "-//W3C//DTD SVG 1.1//EN" "http://www.w3.org/Graphics/SVG/1.1/DTD/svg11.dtd" >
<!--
2013-9-30: Created.
-->
<svg>
<metadata>
Created by iconfont
</metadata>
<defs>

<font id="iconfont" horiz-adv-x="1024" >
  <font-face
    font-family="iconfont"
    font-weight="500"
    font-stretch="normal"
    units-per-em="1024"
    ascent="896"
    descent="-128"
  />
    <missing-glyph />
    
    <glyph glyph-name="x" unicode="x" horiz-adv-x="1001"
d="M281 543q-27 -1 -53 -1h-83q-18 0 -36.5 -6t-32.5 -18.5t-23 -32t-9 -45.5v-76h912v41q0 16 -0.5 30t-0.5 18q0 13 -5 29t-17 29.5t-31.5 22.5t-49.5 9h-133v-97h-438v97zM955 310v-52q0 -23 0.5 -52t0.5 -58t-10.5 -47.5t-26 -30t-33 -16t-31.5 -4.5q-14 -1 -29.5 -0.5
t-29.5 0.5h-32l-45 128h-439l-44 -128h-29h-34q-20 0 -45 1q-25 0 -41 9.5t-25.5 23t-13.5 29.5t-4 30v167h911zM163 247q-12 0 -21 -8.5t-9 -21.5t9 -21.5t21 -8.5q13 0 22 8.5t9 21.5t-9 21.5t-22 8.5zM316 123q-8 -26 -14 -48q-5 -19 -10.5 -37t-7.5 -25t-3 -15t1 -14.5
t9.5 -10.5t21.5 -4h37h67h81h80h64h36q23 0 34 12t2 38q-5 13 -9.5 30.5t-9.5 34.5q-5 19 -11 39h-368zM336 498v228q0 11 2.5 23t10 21.5t20.5 15.5t34 6h188q31 0 51.5 -14.5t20.5 -52.5v-227h-327z" />
    

    
    <glyph glyph-name="gou1" unicode="&#58933;" d="M834.9531 519.0805 419.218 71.383 195.3606 359.1889 277.3084 429.1414 419.218 281.2407 770.9939 583.0371Z"  horiz-adv-x="1000" />

    
    <glyph glyph-name="xiangshangjiantou" unicode="&#58920;" d="M511.5259 532.6753c23.4844 0 46.9668-8.9303 64.8315-26.7397l370.43-370.431c15.7614-15.7604 15.7614-41.2928 0-57.0542-15.7614-15.7604-41.2928-15.7604-57.0542 0L519.3544 448.8292c-4.4145 4.3612-11.3234 4.4134-15.7614-0.0522L133.2675 78.4504c-15.7614-15.7604-41.2928-15.7604-57.0542 0-15.7614 15.7614-15.7614 41.2938 0 57.0542L446.591 505.8824C464.5069 523.746 487.9903 532.6753 511.5259 532.6753z"  horiz-adv-x="1024" />

    
    <glyph glyph-name="mail" unicode="&#58880;" d="M872.50944 709.6 139.83744 709.6C59.55584 709.6 0 636.73216 0 557.29024l0-531.0464C0-53.19808 59.55584-109.6 139.83744-109.6l732.672 0C952.79104-109.6 1024-53.19808 1024 26.24384l0 531.0464C1024 636.73216 952.79104 709.6 872.50944 709.6zM35.26656 562.51264C35.59424 619.1808 82.24768 668.64 139.83744 668.64l732.672 0c51.13856 0 93.55264-40.32512 102.68672-88.10496L575.05792 169.8496c-38.01088-37.15072-99.86048-38.1952-137.87136-1.024L35.26656 562.51264zM40.96 26.24384 40.96 503.4688l258.27328-255.32416L39.85408 23.04896C39.81312 24.1344 40.96 25.13792 40.96 26.24384zM872.50944-68.64 139.83744-68.64c-39.23968 0-73.03168 17.42848-90.95168 48.92672l276.84864 241.21344 82.78016-81.96096c26.91072-26.29632 62.23872-39.95648 97.5872-39.95648s73.60512 12.9024 100.51584 39.19872l75.50976 77.53728 282.33728-234.84416C946.74944-50.67904 912.24064-68.64 872.50944-68.64zM983.04 26.24384c0-2.00704-3.42016-3.8912-3.54304-5.87776L711.39328 246.3424 983.04 525.28 983.04 26.24384z"  horiz-adv-x="1024" />

    
    <glyph glyph-name="gouwuche" unicode="&#58893;" d="M891.113472 601.32224c16.929792 0 30.11584-2.491392 39.4496-7.468032 9.455616-4.97664 16.054272-11.071488 20.03968-18.418688 3.976192-7.340032 5.726208-15.05792 5.470208-23.395328-0.36352-8.337408-1.36192-15.434752-3.231744-21.402624l-11.328512-36.842496c-5.72416-18.540544-12.32384-38.951936-19.529728-61.229056-7.220224-22.27712-14.317568-44.306432-21.29408-66.20672-6.964224-21.906432-12.311552-39.200768-15.920128-51.774464-7.839744-26.50624-17.928192-44.925952-29.996032-55.256064s-27.003904-15.427584-44.55424-15.427584L779.348992 243.901184l-58.9824 0-77.284352 0-84.381696 0L333.449216 243.901184l13.56288-89.608192 457.859072 0c28.997632 0 43.557888-13.563904 43.557888-40.823808 0-13.314048-2.868224-24.764416-8.592384-34.345984-5.846016-9.583616-17.173504-14.4384-34.10432-14.4384l-43.557888 0-84.501504 0L573.261824 64.6848 466.978816 64.6848l-87.237632 0-49.901568 0c-12.201984 0-22.27712 2.988032-30.492672 8.962048s-14.937088 13.811712-20.417536 23.396352c-5.469184 9.583616-9.832448 20.035584-13.187072 31.362048-3.3536 11.328512-5.844992 21.907456-7.716864 31.860736-0.61952 3.980288-2.236416 13.56288-4.970496 28.870656l-9.965568 57.247744-13.186048 76.664832-14.560256 85.123072c-11.449344 67.081216-24.513536 141.75232-39.08608 224.013312l-68.072448 0c-9.07776 0-16.673792 2.491392-22.774784 7.468032-5.967872 4.97664-10.950656 10.949632-14.937088 17.92-3.974144 6.970368-6.720512 14.4384-8.204288 22.40512-1.49504 7.960576-2.24768 15.301632-2.24768 21.901312 0 13.314048 4.108288 24.270848 12.32384 32.857088 8.093696 8.58624 19.166208 12.94336 33.10592 12.94336l20.040704 0 18.035712 0 22.774784 0 30.869504 0c12.068864 0 21.779456-1.992704 29.120512-5.972992 7.2192-3.986432 12.944384-8.963072 17.173504-14.937088 4.22912-5.972992 7.341056-12.32384 9.091072-18.917376l4.593664-16.923648c1.130496-5.353472 2.369536-12.821504 3.6096-22.40512l3.608576-29.369344c1.871872-11.947008 3.6096-24.513536 5.481472-37.833728L891.113472 601.321216zM738.537472 35.812096c11.44832 0 22.519808-2.364416 33.10592-6.970368 10.573824-4.605952 19.663872-11.077632 27.247616-19.414016 7.596032-8.338432 13.698048-18.041856 18.169856-29.370368 4.605952-11.326464 6.842368-23.274496 6.842368-35.84 0-12.573696-2.236416-24.51968-6.842368-35.842048-4.471808-11.326464-10.573824-21.036032-18.169856-29.374464-7.583744-8.338432-16.673792-14.92992-27.247616-19.913728-10.586112-4.975616-21.6576-7.461888-33.10592-7.461888-11.582464 0-22.397952 2.486272-32.730112 7.461888-10.330112 4.983808-19.166208 11.57632-26.76224 19.913728s-13.683712 18.048-18.167808 29.374464c-4.608 11.322368-6.844416 23.268352-6.844416 35.842048 0 12.565504 2.236416 24.513536 6.844416 35.84 4.484096 11.328512 10.571776 21.031936 18.167808 29.370368 7.596032 8.336384 16.432128 14.808064 26.76224 19.414016C716.13952 33.44768 726.955008 35.812096 738.537472 35.812096M360.696832 37.805824c11.449344 0 22.398976-2.364416 32.608256-6.970368 10.330112-4.605952 19.408896-11.077632 27.259904-19.416064 7.960576-8.336384 13.928448-18.048 18.169856-29.36832 4.22912-11.328512 6.34368-23.274496 6.34368-35.848192 0-12.565504-2.11456-24.513536-6.34368-35.84-4.242432-11.322368-10.20928-21.031936-18.169856-29.370368-7.851008-8.336384-16.929792-14.936064-27.259904-19.91168-10.20928-4.977664-21.158912-7.468032-32.608256-7.468032-12.189696 0-23.15264 2.490368-33.227776 7.468032-9.954304 4.975616-18.911232 11.57632-26.76224 19.91168-7.83872 8.338432-13.928448 18.048-18.168832 29.370368-4.230144 11.326464-6.344704 23.274496-6.344704 35.84 0 12.573696 2.11456 24.51968 6.344704 35.848192 4.241408 11.32032 10.330112 21.031936 18.168832 29.36832 7.851008 8.338432 16.807936 14.810112 26.76224 19.416064C337.544192 35.441408 348.507136 37.805824 360.696832 37.805824"  horiz-adv-x="1024" />

    
    <glyph glyph-name="zaixiankefu" unicode="&#58894;" d="M741.727232-32.138c17.036288-14.362 23.862272-7.909 28.09344 11.516l-30.461952 105.245 155.780096 0c43.420672 0 78.598144 34.344 78.598144 76.745L973.73696 611.046c0 42.401-35.177472 76.749-78.598144 76.749l-766.27968-0.004c-43.428864 0-78.594048-34.344-78.594048-76.745l0-449.678 0.001024 0c0-42.401 35.165184-76.745 78.594048-76.745L584.66304 84.623M236.747776 382.022c0 33.672 27.984896 61.011 62.477312 61.011 34.481152 0 62.477312-27.338 62.477312-61.011 0-33.683-27.99616-61.011-62.477312-61.011C264.731648 321.012 236.747776 348.339 236.747776 382.022zM461.661184 382.022c0 33.672 27.984896 61.011 62.476288 61.011 34.492416 0 62.477312-27.338 62.477312-61.011 0-33.683-27.984896-61.011-62.477312-61.011C489.645056 321.012 461.661184 348.339 461.661184 382.022zM686.572544 382.022c0 33.672 27.995136 61.011 62.478336 61.011 34.492416 0 62.476288-27.338 62.476288-61.011 0-33.683-27.983872-61.011-62.476288-61.011C714.56768 321.012 686.572544 348.339 686.572544 382.022z"  horiz-adv-x="1024" />

    
    <glyph glyph-name="kefu1" unicode="&#58895;" d="M507.291 669.701c-158.241 0-286.51-125.659-286.51-280.656 0-154.993 128.27-280.649 286.51-280.649 158.234 0 286.504 125.657 286.504 280.649-0.064 154.997-128.271 280.656-286.504 280.656v0 0zM176.433 281.265v259.147c-3.626 0-7.253-0.127-10.754-0.442 58.727 127.507 189.478 216.325 341.612 216.325 152.127 0 282.939-88.818 341.605-216.325-3.563 0.252-7.126 0.442-10.753 0.442v-259.147c73.043 0 132.343 58.027 132.343 129.544 0 48.61-27.359 90.919-67.761 113.128-56.882 160.4-212.197 275.563-395.434 275.563-183.244 0-338.494-115.163-395.44-275.563-40.402-22.144-67.762-64.518-67.762-113.064 0-71.576 59.237-129.607 132.344-129.608v0 0 0zM793.159 132.702c-74.887-68.465-175.351-110.39-285.867-110.39-110.327 0-210.667 41.737-285.491 110.006-133.871-67.444-221.801-187.631-221.801-350.833h1018.014c0 163.518-89.523 283.834-224.855 351.217v0z"  horiz-adv-x="1024" />

    
    <glyph glyph-name="07f3d66ee41cf70d5d84b0606cb8dc7fpng" unicode="&#58896;" d="M939.008 583.296l-57.856-67.84c0 0-49.856-55.232-55.872-103.744-308.16 92.864-666.432 1.984-666.432 1.984s-10.496 47.424-23.936 73.856c-13.44 26.432-46.016 79.040-51.904 91.776-5.824 12.736 8 21.952 8 21.952s379.52 190.912 420.992 191.552 414.208-188.544 425.024-193.536c10.816-5.056 1.984-16 1.984-16zM591.872 643.136h-159.68v-85.824c0 0-3.008-39.744 79.808-73.856 76.8 33.344 79.808 75.84 79.808 75.84v83.84zM192.768 268.032c1.856 28.416 16.832 56.512 23.104 67.264-11.392 11.264-17.152 18.56-17.152 18.56 274.176 104.704 619.072 14.592 624.512 0 0.128-0.576-3.776-5.824-11.584-13.952 8.064-20.416 19.584-71.872 19.584-71.872s68.608-33.728 69.824-125.696c1.216-91.968-113.728-143.68-113.728-143.68s-52.992-192.32-275.328-215.488c-224.96 27.968-275.328 219.456-275.328 219.456s-109.44 38.592-111.744 137.664c-0.384 21.76-8.512 97.6 67.84 127.744zM282.56 60.544c0 0 55.744-189.44 229.44-209.536 157.12 15.488 221.504 201.536 221.504 201.536s127.296 30.4 89.792 127.68c-22.464-20.8-65.792-11.712-63.872 23.936 2.24 40.512-3.712 70.272-8 85.696-54.272-36.8-137.728-75.392-245.376-73.728-105.408 1.664-184.704 39.424-236.352 74.944-2.496-8.832-9.472-38.080-7.104-84.864-2.816-57.472-60.992-36.352-61.824-27.968-35.712-92.928 81.792-117.696 81.792-117.696z"  horiz-adv-x="1024" />

    
    <glyph glyph-name="iconfontshangjia" unicode="&#58897;" d="M784.996 329.271c16.916-14.684 37.876-24.828 60.788-28.728v-373c0-16.847-13.549-30.429-30.36-30.429h-607.681c-16.811 0-30.466 13.582-30.466 30.429v372.858c23.019 3.582 43.907 13.264 60.896 27.522v-198.506h546.821v199.854zM833.336 615.98c4.362 0 8.513-0.923 12.449-2.377v34.225c0 16.811-13.549 30.395-30.36 30.395h-607.681c-16.811 0-30.466-13.583-30.466-30.395v-34.616c4.364 1.667 9.116 2.766 13.938 2.766h642.119zM833.336 579.45h-642.119l-121.968-130.977c0-48.907 39.686-88.595 88.56-88.595 10.179 0 19.861 1.773 29.011 4.895 0.283 0.176 0.711 0.319 0.994 0.461 2.871 0.994 5.604 2.093 8.192 3.369 0.319 0.144 0.745 0.356 1.099 0.568 2.767 1.384 5.498 2.838 8.088 4.469 0.105 0.071 0.283 0.178 0.353 0.249 11.28 7.237 20.784 16.954 27.878 28.302 0 0.071 0.070 0.178 0.070 0.283 1.702 2.768 3.263 5.747 4.681 8.76v0.037c5.32 11.28 8.299 23.905 8.299 37.203 0-48.907 39.722-88.595 88.595-88.595 48.908 0 88.596 39.688 88.596 88.595 0-48.907 39.686-88.595 88.665-88.595 48.908 0 88.596 39.688 88.596 88.595 0-48.907 39.615-88.595 88.665-88.595 48.803 0 88.524 39.688 88.524 88.595 0-15.64 4.113-30.324 11.172-43.126 0.391-0.568 0.711-1.135 1.099-1.703 1.348-2.198 2.697-4.398 4.222-6.524 0.391-0.568 0.957-1.313 1.525-2.058 1.491-1.879 3.051-3.902 4.752-5.712 0.497-0.604 0.957-1.099 1.418-1.666 2.058-2.235 4.289-4.257 6.597-6.207 0.070-0.105 0.144-0.248 0.282-0.283 7.803-6.667 16.706-11.916 26.459-15.604 0.071 0 0.249-0.037 0.319-0.142 3.263-1.171 6.419-2.2 9.825-2.98v0c6.772-1.667 13.76-2.591 20.889-2.591 48.98 0 88.701 39.688 88.701 88.595l-122.039 130.978z"  horiz-adv-x="1024" />

    
    <glyph glyph-name="cha" unicode="&#58881;" d="M481.458 832.373c-264.081 0-478.159-214.079-478.159-478.162 0-264.080 214.079-478.16 478.159-478.16 264.064 0 478.143 214.080 478.143 478.16-0 264.083-214.079 478.162-478.143 478.162zM683.379 152.673c-0.007-0.008-0.015-0.016-0.024-0.024-13.293-13.293-34.845-13.306-48.154-0.021l-153.681 153.406-153.407-153.699c-0.008-0.007-0.016-0.017-0.024-0.023-13.294-13.294-34.844-13.307-48.153-0.024-13.333 13.309-13.355 34.878-0.063 48.195l153.407 153.698-153.7 153.41c-13.315 13.292-13.337 34.861-0.046 48.177 0.008 0.007 0.016 0.015 0.024 0.024 13.275 13.275 34.827 13.288 48.136 0.004l153.698-153.408 153.393 153.702c0.008 0.007 0.016 0.015 0.023 0.023 13.294 13.294 34.846 13.306 48.171 0.006 13.317-13.292 13.336-34.861 0.046-48.177l-153.409-153.701 153.701-153.408c13.315-13.292 13.337-34.863 0.062-48.16z"  horiz-adv-x="1024" />

    
    <glyph glyph-name="jikediancanicon10" unicode="&#58898;" d="M513.504 745.504c-246.336 0-446.752-200.416-446.752-446.752C66.752 52.416 267.2-148 513.504-148c246.336 0 446.752 200.416 446.752 446.752C960.256 545.088 759.84 745.504 513.504 745.504zM513.504-100.896c-220.384 0-399.68 179.264-399.68 399.68 0 220.384 179.264 399.648 399.68 399.648s399.648-179.264 399.648-399.648C913.184 78.368 733.92-100.896 513.504-100.896zM740.736 482.208l-316.032-316.032-138.432 138.432c-9.376 9.376-24.576 9.376-33.952 0-9.376-9.376-9.376-24.544 0-33.952l172.384-172.384 349.984 349.952c9.376 9.376 9.376 24.576 0 33.952C765.312 491.584 750.112 491.584 740.736 482.208z"  horiz-adv-x="1024" />

    
    <glyph glyph-name="huabiyanse" unicode="&#58899;" d="M980.536889 518.180267 612.420267 152.430222c-13.334756-13.334756-98.440533-66.742044-98.440533-66.742044s51.017956 85.105778 64.352711 98.440533l368.116622 365.750044c13.334756 13.334756 34.952533 29.878044 48.287289 16.566044C1008.048356 553.110044 993.848889 531.492267 980.536889 518.180267zM706.787556 436.055467c0-25.122133-20.388978-45.511111-45.511111-45.511111s-45.511111 20.388978-45.511111 45.511111 20.388978 45.511111 45.511111 45.511111S706.787556 461.1776 706.787556 436.055467zM228.920889 276.766578c-25.122133 0-45.511111 20.388978-45.511111 45.511111s20.388978 45.511111 45.511111 45.511111 45.511111-20.388978 45.511111-45.511111S254.043022 276.766578 228.920889 276.766578zM297.187556 436.055467c0 25.122133 20.388978 45.511111 45.511111 45.511111s45.511111-20.388978 45.511111-45.511111-20.388978-45.511111-45.511111-45.511111S297.187556 410.910578 297.187556 436.055467zM456.476444 481.566578c0 25.122133 20.388978 45.511111 45.511111 45.511111s45.511111-20.388978 45.511111-45.511111-20.388978-45.511111-45.511111-45.511111S456.476444 456.421689 456.476444 481.566578zM464.713956 618.0544C258.503111 595.071289 67.356444 435.350044 67.356444 224.861156c0-75.867022 41.961244-70.155378 115.529956-60.893867 49.060978 6.166756 110.159644-16.156444 120.149333-97.439289 6.144-49.629867 73.022578-87.950222 173.920711-87.950222 185.503289 0 357.717333 140.811378 384.773689 319.374222 0.887467 5.870933 0.910222 11.264 1.456356 16.975644l48.014222 48.014222c0.591644-16.7936 0.227556-34.019556-2.002489-52.064711-24.1664-194.104889-195.561244-375.466667-429.192533-375.466667-90.089244 0-194.537244 35.862756-210.7392 90.658133-13.858133 46.921956-19.137422 113.709511-85.879467 98.463289-83.603911-19.069156-157.104356 8.965689-159.288889 83.922489C16.361244 475.991467 231.0144 634.142578 467.854222 661.244444c148.024889 16.907378 299.736178-31.220622 381.860978-132.369067l-33.3824-33.359644C743.037156 592.113067 598.994489 633.0048 464.713956 618.0544z"  horiz-adv-x="1024" />

    
    <glyph glyph-name="qiehuan" unicode="&#58932;" d="M896.012 44.025l-512 0c-70.708 0-127.987 57.279-127.987 127.987l0 511.95C256.025 754.67 313.305 812 384.012 812l512 0C966.67 812 1024 754.67 1024 683.962l0-511.95C1024 101.305 966.67 44.025 896.012 44.025L896.012 44.025zM959.982 683.962c0 35.38-28.64 64.019-63.97 64.019l-512 0c-35.379 0-64.018-28.64-64.018-64.019l0-511.95c0-35.329 28.64-64.018 64.018-64.018l512 0c35.33 0 63.97 28.69 63.97 64.018L959.982 683.962 959.982 683.962zM64.019 427.988l0-512c0-35.328 28.64-63.968 63.968-63.968l512 0c35.329 0 64.018 28.64 64.018 63.968l0 64.019 63.969 0 0-64.019c0-70.658-57.279-127.987-127.987-127.987l-512 0C57.329-212 0-154.671 0-84.013l0 512c0 70.708 57.329 127.987 127.987 127.987l64.019 0 0-63.969-64.019 0C92.659 492.006 64.019 463.366 64.019 427.988L64.019 427.988z"  horiz-adv-x="1024" />

    
    <glyph glyph-name="saoma" unicode="&#58900;" d="M899.039987-145.901583c-14.32731 0-25.907043 11.57871-25.907043 25.90602L873.132944 165.0034c0 14.326287 11.57871 25.911136 25.907043 25.911136 14.326287 0 25.910113-11.583826 25.910113-25.911136l0-284.998963C924.9501-134.322873 913.367297-145.901583 899.039987-145.901583L899.039987-145.901583zM899.039987 242.731692 121.775484 242.731692c-14.32731 0-25.907043 11.57871-25.907043 25.90602 0 14.303774 11.57871 25.911136 25.907043 25.911136L899.039987 294.548848c14.326287 0 25.910113-11.607362 25.910113-25.911136C924.9501 254.310402 913.367297 242.731692 899.039987 242.731692L899.039987 242.731692zM873.133967 346.364981 639.95216 346.364981c-28.602432 0-51.818179 23.214724-51.818179 51.817156L588.133981 631.363943c0 28.603455 23.214724 51.817156 51.818179 51.817156l233.181807 0c28.603455 0 51.817156-23.213701 51.817156-51.817156l0-233.18283C924.9501 369.579705 901.736399 346.364981 873.133967 346.364981L873.133967 346.364981zM873.133967 631.363943 639.95216 631.363943l0-233.18283 233.181807 0L873.133967 631.363943 873.133967 631.363943zM510.407736 346.364981c-14.32731 0-25.907043 11.607362-25.907043 25.911136L484.500693 657.269963c0 14.303774 11.57871 25.911136 25.907043 25.911136 14.326287 0 25.910113-11.607362 25.910113-25.911136l0-284.993846C536.317848 357.972343 524.735046 346.364981 510.407736 346.364981L510.407736 346.364981zM380.863311 346.364981 147.684574 346.364981c-28.602432 0-51.817156 23.214724-51.817156 51.817156L95.867418 631.363943c0 28.603455 23.214724 51.817156 51.817156 51.817156l233.178737 0c28.602432 0 51.817156-23.213701 51.817156-51.817156l0-233.18283C432.680467 369.579705 409.465742 346.364981 380.863311 346.364981L380.863311 346.364981zM380.863311 631.363943 147.684574 631.363943l0-233.18283 233.178737 0L380.863311 631.363943 380.863311 631.363943zM147.684574 190.914536l233.178737 0c28.602432 0 51.817156-23.214724 51.817156-51.821249l0-233.177714c0-28.603455-23.214724-51.817156-51.817156-51.817156L147.684574-145.901583c-28.602432 0-51.817156 23.213701-51.817156 51.817156L95.867418 139.093287C95.868441 167.699812 119.083166 190.914536 147.684574 190.914536L147.684574 190.914536zM147.684574-94.084427l233.178737 0L380.863311 139.093287 147.684574 139.093287 147.684574-94.084427 147.684574-94.084427zM510.407736 190.914536c14.326287 0 25.910113-11.583826 25.910113-25.911136l0-284.998963c0-14.326287-11.582803-25.90602-25.910113-25.90602-14.32731 0-25.907043 11.57871-25.907043 25.90602L484.500693 165.0034C484.500693 179.33071 496.080425 190.914536 510.407736 190.914536L510.407736 190.914536zM639.95216 190.914536c14.326287 0 25.910113-11.583826 25.910113-25.911136l0-284.998963c0-14.326287-11.582803-25.90602-25.910113-25.90602-14.32731 0-25.907043 11.57871-25.907043 25.90602L614.045117 165.0034C614.045117 179.33071 625.623827 190.914536 639.95216 190.914536L639.95216 190.914536zM769.496585 190.914536c14.326287 0 25.910113-11.583826 25.910113-25.911136l0-77.727269c0-14.326287-11.582803-25.90602-25.910113-25.90602-14.32731 0-25.907043 11.57871-25.907043 25.90602l0 77.727269C743.589542 179.33071 755.168252 190.914536 769.496585 190.914536L769.496585 190.914536zM769.496585 9.548862c14.326287 0 25.910113-11.57871 25.910113-25.90602l0-103.638405c0-14.326287-11.582803-25.90602-25.910113-25.90602-14.32731 0-25.907043 11.57871-25.907043 25.90602L743.589542-16.357158C743.589542-2.030871 755.168252 9.548862 769.496585 9.548862L769.496585 9.548862zM769.496585 9.548862"  horiz-adv-x="1024" />

    
    <glyph glyph-name="sousuo" unicode="&#58901;" d="M918.282-60.401l-128.545 128.588c-1.346 1.29-2.986 1.9-4.413 2.919 125.188 149.643 117.692 373.406-22.822 513.913-72.022 72.022-167.726 111.7-269.566 111.7-101.797 0-197.518-39.718-269.527-111.7-148.628-148.619-148.628-390.493 0-539.131 72.022-71.94 167.726-111.647 269.527-111.647 90.389 0 175.913 31.392 244.389 88.765 1.038-1.346 1.632-2.986 2.841-4.29l128.676-128.599c6.803-6.803 15.805-10.22 24.727-10.22s17.913 3.417 24.727 10.22c13.74 13.671 13.74 35.794 0 49.488M492.944 4.194c-83.141 0-161.269 32.393-220.053 91.218-121.308 121.308-121.308 318.749 0 440.163 58.779 58.757 136.929 91.121 220.053 91.121s161.365-32.345 220.037-91.121c121.446-121.435 121.446-318.867 0-440.163-58.685-58.822-136.906-91.218-220.037-91.218z"  horiz-adv-x="1024" />

    
    <glyph glyph-name="ananzuiconv265" unicode="&#58921;" d="M135.591936 528.149248l378.496-375.927808 375.46496 372.890624c15.884288 15.80032 41.66656 15.80032 57.549824 0 15.884288-15.77984 15.884288-41.367552 0-57.147392L551.96672 75.517696c-7.512064-7.462912-17.23392-11.390976-27.076608-11.794432-15.3344-7.17312-34.193408-4.468736-46.882816 8.124416L77.110272 470.063872c-16.166912 16.024576-16.166912 42.04032 0 58.084352C93.256704 544.194304 119.44448 544.194304 135.591936 528.149248z"  horiz-adv-x="1024" />

    
    <glyph glyph-name="weixihuan" unicode="&#58925;" d="M881.396653 613.853128c-132.63481 132.653229-264.09998 74.686003-369.417631-19.949354-105.283882 94.635357-235.69914 153.649426-369.382838 19.949354C38.393937 509.705116 37.828049 342.302455 142.596184 238.6487c368.264365-331.260589 368.175337-330.621023 368.175337-330.621023s0.533143-1.121544 370.627179 330.621023C986.165812 342.302455 985.617319 509.705116 881.396653 613.853128zM853.354993 274.536049c-204.39518-180.714851-298.781874-269.066085-342.300017-307.119773-43.696198 38.619576-140.249231 127.717823-344.463286 308.964794-39.046295 38.195927-59.671031 99.553367-59.812247 156.080801-0.160659 57.186444 22.594601 111.178125 64.073294 152.086837 42.951231 42.3659 85.157495 65.012689 129.085984 65.012689 51.080376 0 109.384269-24.63405 173.315324-81.323167l38.728046-34.326806 38.727023 34.326806c63.575967 56.388265 121.967866 80.880075 173.545568 80.880075 44.070728 0 86.224804-22.503527 128.856763-64.569598 41.478693-40.909735 64.250326-94.901417 64.10911-152.052045C917.036361 375.951833 894.388549 314.57802 853.354993 274.536049z"  horiz-adv-x="1024" />

    
    <glyph glyph-name="yixihuan" unicode="&#58926;" d="M881.39563 613.854151c-132.633786 132.652206-264.09691 74.686003-369.416608-19.949354-105.284905 94.635357-235.701187 153.649426-369.382838 19.949354-104.201224-104.149035-104.770182-271.553743 0-375.206474 368.263341-331.259566 368.177384-330.62 368.177384-330.62s0.533143-1.119497 370.625132 330.62C986.168881 342.300408 985.617319 509.705116 881.39563 613.854151z"  horiz-adv-x="1024" />

    
    <glyph glyph-name="jiantoushangxia" unicode="&#58886;" d="M461.481 740.305c0 0 0-2.575 0-4.977v-727.647c0-7.468-2.573-12.445-7.555-12.445h-77.261c-4.978 0-7.384 4.977-7.384 12.445l0 565.652-82.243-144.48c-7.555-12.538-17.511-12.538-24.895-5.065l-39.92 47.387c-7.468 7.468-9.957 24.895-2.49 34.854l171.871 303.988c5.061 9.958 17.51 12.532 24.978 4.977l39.921-47.302c4.977-7.47 7.383-17.426 4.977-27.387v0zM561.152 54.986c0 0 0 2.489 0 4.977v727.645c0 7.469 4.977 12.447 9.961 12.447h74.684c5.064 0 10.043-4.977 10.043-12.447v-565.652l82.159 144.57c5.061 12.444 17.512 12.444 24.978 4.977l39.834-47.388c7.471-7.467 7.471-24.895 2.494-34.855l-171.953-303.985c-7.472-10.044-17.427-12.532-24.9-4.977l-39.832 47.3c-4.978 7.471-7.467 17.426-7.467 27.388v0z"  horiz-adv-x="1024" />

    
    <glyph glyph-name="quanbu" unicode="&#58902;" d="M749.548 168.381l0.028 0.166 0.245 0.423 0.103-0.315zM724.868 180.809l0.025 0.148 0.219 0.379 0.092-0.282zM123.095 428.753l376.736-214.9c7.224-4.117 15.719-3.72 22.432 0.163 0.168 0.091 0.347 0.133 0.512 0.227l378.136 215.216c7.379 4.205 11.376 11.95 11.284 19.88 0.085 7.926-3.91 15.663-11.284 19.865l-378.136 215.215c-0.165 0.094-0.344 0.137-0.511 0.227-6.714 3.883-15.21 4.28-22.434 0.164l-376.735-214.9c-7.595-4.329-11.618-12.407-11.269-20.578-0.349-8.171 3.674-16.25 11.269-20.578zM510.973 639.238l333.67-189.908-333.67-189.906-332.922 189.907 332.922 189.907zM123.091 263.841l376.736-214.9c7.224-4.117 15.719-3.72 22.432 0.163 0.168 0.091 0.347 0.133 0.512 0.227l378.135 215.216c10.821 6.166 14.594 19.938 8.428 30.759-6.166 10.821-19.938 14.594-30.76 8.428l-367.604-209.221-365.546 208.517c-10.821 6.166-24.594 2.394-30.761-8.428-6.166-10.821-2.392-24.592 8.428-30.76zM878.576 145.985l-367.605-209.222-365.546 208.518c-10.821 6.166-24.594 2.394-30.761-8.428-6.166-10.821-2.392-24.592 8.428-30.76l376.736-214.9c7.224-4.117 15.719-3.719 22.432 0.163 0.168 0.09 0.347 0.133 0.512 0.227l378.135 215.216c10.821 6.166 14.594 19.938 8.428 30.76s-19.937 14.593-30.759 8.427z"  horiz-adv-x="1024" />

    
    <glyph glyph-name="guanyuwomenicon" unicode="&#58903;" d="M997.574194 131.303226c0 137.083871-109.006452 254.348387-244.43871 260.954839 75.974194 6.606452 135.432258 71.019355 135.432258 148.645161 0 82.580645-66.064516 148.645161-148.645161 148.645161-13.212903 0-26.425806-1.651613-37.987097-4.954839 14.864516-28.077419 23.122581-59.458065 23.122581-94.141935 0-66.064516-33.032258-125.522581-84.232258-161.858065 23.122581-19.819355 52.851613-33.032258 85.883871-36.335484-14.864516 0-31.380645-3.303226-46.245161-6.606452 95.793548-52.851613 163.509677-151.948387 175.070968-264.258065l140.387097 0C997.574194 119.741935 997.574194 128 997.574194 131.303226zM368.309677 380.696774c-19.819355 6.606452-39.63871 9.909677-61.109677 9.909677 36.335484 3.303226 71.019355 19.819355 94.141935 44.593548-44.593548 36.335484-72.670968 90.83871-72.670968 151.948387 0 31.380645 8.258065 61.109677 21.470968 87.535484-18.167742 6.606452-36.335484 11.56129-56.154839 11.56129-82.580645 0-148.645161-66.064516-148.645161-148.645161 0-77.625806 61.109677-142.03871 137.083871-148.645161C145.341935 384 37.987097 268.387097 37.987097 131.303226c0-1.651613 0-11.56129 0-11.56129l161.858065 0C211.406452 230.4 275.819355 327.845161 368.309677 380.696774zM543.380645 408.774194c92.490323 8.258065 165.16129 85.883871 165.16129 181.677419 0 100.748387-80.929032 181.677419-181.677419 181.677419s-181.677419-80.929032-181.677419-181.677419c0-95.793548 74.322581-173.419355 166.812903-181.677419-165.16129-8.258065-297.290323-145.341935-297.290323-313.806452 0-3.303226 0-4.954839 0-8.258065L842.322581 86.709677c0 3.303226 0 4.954839 0 8.258065C842.322581 263.432258 710.193548 400.516129 543.380645 408.774194z"  horiz-adv-x="1024" />

    
    <glyph glyph-name="user" unicode="&#58882;" d="M854.937536-1.996079c-1.961678 8.570189-4.745071 17.001209-7.620561 25.297153-7.827269 22.576181-17.480116 44.673455-28.831652 65.699328-31.827893 58.954717-79.116919 111.470791-139.29858 142.198629-14.520715 7.414877-29.53671 13.534248-44.913932 18.434861 21.936615 10.767228 42.188868 25.187659 59.974953 42.974767 42.416042 42.416042 65.775053 98.81147 65.775053 158.796656s-23.359011 116.379591-65.775053 158.795633c-42.416042 42.416042-98.81147 65.776076-158.796656 65.776076s-116.379591-23.360034-158.796656-65.776076c-42.416042-42.416042-65.776076-98.810447-65.776076-158.795633s23.360034-116.379591 65.776076-158.796656c17.686824-17.686824 37.811164-32.04688 59.606563-42.794665-5.229095-1.688455-10.404977-3.526313-15.514345-5.51869-68.27192-26.626427-122.83256-76.448136-161.559583-138.103358-14.083763-22.421662-25.648147-46.188972-35.58752-70.707388-4.736884-11.68411-9.216919-23.64656-12.43317-35.855626-0.143263-0.542352-0.294712-1.081635-0.430812-1.62501-3.110851-12.444427 4.010337-27.217898 17.153682-30.211069 12.720719-2.90005 26.875091 3.817955 30.207999 17.151635 2.066055 8.263198 4.898567 16.376992 7.813966 24.369014 1.538029 4.216022 3.15076 8.405437 4.831029 12.567223 1.007957 2.496867 4.617158 10.728342 0.305969 0.852414 1.12359 2.572592 2.218528 5.157463 3.366677 7.719822 4.932336 11.007705 10.332323 21.806655 16.191774 32.350802 6.77531 12.19167 14.169721 24.042579 22.199605 35.447327 2.097778 2.978844 4.238534 5.928013 6.424316 8.844435 0.924045 1.233084 1.879813 2.443655 2.796696 3.682879-5.714142-7.717775-0.657986-0.88516 0.782829 0.907673 5.004991 6.227842 10.222829 12.285814 15.653515 18.146289 10.964726 11.830443 22.819728 22.75526 35.44528 32.787754 0.407276 0.306992 0.814552 0.615007 1.223874 0.919952 1.545192 1.150196 3.101641 2.286066 4.669346 3.405563 3.750417 2.676969 7.565303 5.262864 11.441587 7.752568 7.494695 4.813632 15.220656 9.267061 23.146163 13.331633 3.820002 1.959631 7.686053 3.828188 11.595083 5.604648 1.926886 0.87595 9.841136 4.111644 1.424442 0.709151 2.488681 1.00591 4.965082 2.039449 7.470135 3.004427 8.839319 3.40454 17.85567 6.345522 26.997887 8.821923 10.026354 2.715855 20.202111 4.872984 30.461779 6.490831 1.116427 0.176009 2.234901 0.338714 3.352351 0.506537 2.307555 0.277316 4.616134 0.551562 6.92983 0.784876 5.362124 0.541329 10.737552 0.943488 16.120143 1.212618 11.579733 0.578168 23.195282 0.556679 34.772968-0.070608 4.91801-0.26606 9.830903-0.644683 14.730493-1.140986 2.270716-0.229221 4.535293-0.49835 6.800893-0.771573 1.565658-0.239454 3.133364-0.467651 4.696975-0.722454 19.458167-3.165086 38.595017-8.312316 56.944943-15.528672 1.988284-0.781806 9.79918-4.303003 1.514493-0.555655 2.053776-0.929162 4.13211-1.801019 6.181793-2.741437 4.036943-1.852184 8.026814-3.805676 11.965519-5.857405 7.978718-4.157693 15.744589-8.721639 23.264866-13.660114 3.518127-2.310625 6.982018-4.702092 10.390651-7.172353 1.330298-0.964978 2.650363-1.942235 3.964288-2.929726-0.425695 0.337691-0.89437 0.709151-1.464351 1.162476 0.536212-0.426719 1.074472-0.849344 1.612731-1.27197 0.023536-0.017396 0.048095-0.034792 0.071631-0.053212 1.026376-0.772596 2.943029-2.321882 1.786693-1.420349 6.490831-5.208629 12.753465-10.700713 18.774599-16.443507 11.086499-10.57587 20.964474-22.073738 30.648021-33.905204 0.394996-0.49835 0.76441-0.970094 1.014096-1.303692 0.913812-1.221828 1.820462-2.448772 2.718925-3.682879 2.298346-3.155876 4.545526-6.350638 6.739495-9.580193 4.064572-5.982248 7.952112-12.085246 11.663644-18.292622 6.497994-10.865465 12.461823-22.049179 17.901719-33.480532 2.309602-4.854565 4.487198-9.765411 6.628978-14.6957 0.413416-1.00591 0.823761-2.010797 1.228991-3.019777 0.8913-2.220574 1.763157-4.448312 2.615571-6.684236 4.348028-11.411911 8.05956-22.992667 11.263531-34.770921 0.146333-0.537236 0.272199-1.082658 0.397043-1.62501 2.870374-12.535501 17.972327-21.113877 30.211069-17.153682C850.900593-27.962473 858.012571-15.426973 854.937536-1.996079zM351.811648 451.405315c0 101.259218 82.380242 183.63946 183.640484 183.63946s183.63946-82.380242 183.63946-183.63946-82.380242-183.63946-183.63946-183.63946S351.811648 350.146097 351.811648 451.405315zM745.109152 112.449463C742.143611 116.090387 743.643778 114.284251 745.109152 112.449463L745.109152 112.449463zM694.119851 163.904369c-0.049119 0.036839-0.099261 0.072655-0.149403 0.110517 1.01819-0.806365 1.658779-1.310855 2.006703-1.583055-0.079818 0.064468-0.157589 0.130983-0.23843 0.195451C695.202509 163.056048 694.66118 163.479697 694.119851 163.904369z"  horiz-adv-x="1024" />

    
    <glyph glyph-name="hui" unicode="&#58904;" d="M511.634 557.438 348.501 231.173 674.792 231.173ZM512 799.81C236.398 799.81 12.19 575.602 12.19 300S236.398-199.81 512-199.81 1011.81 24.398 1011.81 300 787.602 799.81 512 799.81zM317.879 224.419l182.857 365.714c4.145 8.265 17.676 8.265 21.821 0l182.857-365.714c1.877-3.779 1.682-8.265-0.512-11.849-2.267-3.584-6.193-5.778-10.411-5.778L328.777 206.792c-4.218 0-8.143 2.194-10.362 5.778C316.197 216.154 315.977 220.64 317.879 224.419zM707.438 121.458 316.587 121.458c-6.729 0-12.19 5.461-12.19 12.19 0 6.729 5.461 12.19 12.19 12.19l390.851 0c6.729 0 12.19-5.461 12.19-12.19C719.628 126.92 714.167 121.458 707.438 121.458z"  horiz-adv-x="1024" />

    
    <glyph glyph-name="gou" unicode="&#58883;" d="M511.966 805.427c-232.738 0-421.393-188.672-421.393-421.393s188.672-421.461 421.393-421.461c232.789 0 421.461 188.74 421.461 421.461s-188.672 421.393-421.461 421.393zM460.988 159.863l-218.283 239.394 50.773 46.336 165.035-180.975 270.302 326.229 52.975-43.861-320.802-387.123z"  horiz-adv-x="1024" />

    
    <glyph glyph-name="select" unicode="&#58922;" d="M512 207.978c-8.187 0-16.375 3.126-22.625 9.375l-224 224c-12.5 12.5-12.5 32.766 0 45.25 12.5 12.5 32.781 12.5 45.25 0l201.376-201.358 201.375 201.359c12.5 12.5 32.781 12.5 45.249 0 12.5-12.484 12.5-32.75 0-45.25l-224-224c-6.218-6.252-14.436-9.376-22.623-9.376z"  horiz-adv-x="1024" />

    
    <glyph glyph-name="xiangshang" unicode="&#58905;" d="M897.070634 362.388932 511.721149 747.975824 129.77825 366.032926 175.002244 320.807908 479.687572 625.494259 479.687572-146.579011 543.644209-146.579011 543.644209 625.368392 851.84664 317.165961Z"  horiz-adv-x="1024" />

    
    <glyph glyph-name="iconfontzhifubao" unicode="&#58923;" d="M1023.648242 194.722129 1023.648242 698.503779c0 108.597339-88.13141 196.728749-196.792705 196.728749L197.080507 895.232528C88.483168 895.232528 0.351758 807.101118 0.351758 698.503779l0-629.77503c0-108.597339 88.067454-196.728749 196.728749-196.728749l629.77503 0c96.765474 0 177.286116 69.967897 193.722816 162.000625-52.188121 22.576479-278.336644 120.237337-396.143651 176.454687-89.666354-108.597339-183.553807-173.768534-325.088502-173.768534s-235.997752 87.172069-224.677534 193.850728C82.151521 300.569359 130.1825 415.050653 338.80707 395.416151 448.747486 385.119231 499.080882 364.589345 588.747236 334.977703c23.216039 42.53076 42.466804 89.346574 57.112735 139.168322L248.245331 474.146025 248.245331 513.542939l196.728749 0L444.97408 584.278309 205.011055 584.278309 205.011055 627.640497l239.963025 0L444.97408 729.714321c0 0 2.174505 15.989008 19.826369 15.989008L563.164824 745.703329l0-118.062832 255.824121 0 0-43.362188-255.824121 0L563.164824 513.542939l208.688527 0c-19.186809-78.090313-48.286803-149.848979-84.74174-212.525888C747.741927 279.080132 1023.648242 194.722129 1023.648242 194.722129L1023.648242 194.722129 1023.648242 194.722129zM283.676972 104.224346c-149.529199 0-173.19293 94.399101-165.262382 133.859971 7.866592 39.269003 51.164824 90.497783 134.307663 90.497783 95.550309 0 181.123478-24.431204 283.836862-74.444819C464.416714 160.185872 375.773656 104.224346 283.676972 104.224346L283.676972 104.224346z"  horiz-adv-x="1024" />

    
    <glyph glyph-name="baozhang2" unicode="&#58906;" d="M568.888889 850.488889 568.888889 877.795556 455.111111 877.795556 455.111111 850.488889C217.315556 823.182222 30.72 632.035556 10.24 391.964444L500.622222 391.964444l0-362.951111 0-42.097778L500.622222-14.222222c0-10.24-2.275556-73.955556-50.062222-73.955556-13.653333 0-45.511111-2.275556-53.475556 38.684444-1.137778 7.964444-6.826667 13.653333-14.791111 11.377778-5.688889-2.275556-14.791111-5.688889-9.102222-21.617778 9.102222-28.444444 27.306667-51.2 75.093333-51.2 0 0 43.235556 0 61.44 29.582222 10.24 17.066667 13.653333 36.408889 13.653333 60.302222l0 50.062222L523.377778 391.964444l490.382222 0C993.28 632.035556 806.684444 823.182222 568.888889 850.488889zM394.808889 586.524444c-15.928889 27.306667-30.72 53.475556-46.648889 79.644444 15.928889 9.102222 30.72 18.204444 46.648889 26.168889L394.808889 586.524444zM457.386667 518.257778c0-6.826667-5.688889-11.377778-11.377778-11.377778-6.826667 0-11.377778 4.551111-11.377778 11.377778 0 0 0 0 0 0 0 35.271111 0 104.675556 0 104.675556 6.826667-4.551111 14.791111-10.24 21.617778-14.791111 1.137778-1.137778 2.275556-2.275556 2.275556-3.413333L458.524444 518.257778zM523.377778 494.364444C523.377778 494.364444 523.377778 494.364444 523.377778 494.364444c0-6.826667-4.551111-11.377778-11.377778-11.377778-6.826667 0-11.377778 4.551111-11.377778 11.377778 0 0 0 0 0 0 0 0 0 1.137778 0 1.137778 0 25.031111 0 50.062222 0 75.093333 0 5.688889 0 10.24 0 15.928889 0 7.964444-3.413333 14.791111-11.377778 18.204444-10.24 5.688889-20.48 11.377778-29.582222 18.204444-6.826667 4.551111-12.515556 9.102222-17.066667 14.791111-4.551111 4.551111-6.826667 11.377778-6.826667 18.204444 0 22.755556 0 45.511111 0 68.266667 0 0 0 1.137778 0 1.137778 0 0 0 1.137778 0 1.137778 0 0 0 0 0 0 1.137778 5.688889 5.688889 9.102222 11.377778 9.102222 5.688889 0 10.24-4.551111 11.377778-9.102222 0 0 0 0 0 0 0-1.137778 0-1.137778 0-2.275556l0-68.266667c1.137778-20.48 11.377778-34.133333 30.72-40.96 4.551111-1.137778 9.102222-3.413333 13.653333-4.551111 14.791111-4.551111 21.617778-15.928889 21.617778-30.72C523.377778 552.391111 523.377778 523.946667 523.377778 494.364444 523.377778 494.364444 523.377778 494.364444 523.377778 494.364444zM589.368889 519.395556C589.368889 519.395556 589.368889 519.395556 589.368889 519.395556 589.368889 519.395556 589.368889 519.395556 589.368889 519.395556 589.368889 519.395556 589.368889 519.395556 589.368889 519.395556 589.368889 519.395556 589.368889 519.395556 589.368889 519.395556c-1.137778-6.826667-5.688889-11.377778-11.377778-11.377778-6.826667 0-11.377778 4.551111-11.377778 11.377778 0 0 0 1.137778 0 1.137778 0 15.928889 0 30.72 0 48.924444 0 5.688889 0 10.24 0 15.928889 0 9.102222-4.551111 14.791111-12.515556 19.342222-9.102222 4.551111-18.204444 10.24-27.306667 15.928889-5.688889 3.413333-11.377778 7.964444-17.066667 13.653333-6.826667 5.688889-9.102222 13.653333-9.102222 22.755556 0 30.72 0 53.475556 0 92.16 0 1.137778 0 1.137778 0 2.275556 0 6.826667 5.688889 11.377778 11.377778 11.377778 6.826667 0 11.377778-5.688889 11.377778-11.377778l0-2.275556c0-15.928889 0-77.368889 0-92.16 1.137778-21.617778 11.377778-32.995556 30.72-40.96 5.688889-2.275556 10.24-3.413333 15.928889-5.688889 13.653333-4.551111 20.48-15.928889 20.48-29.582222C589.368889 561.493333 590.506667 541.013333 589.368889 519.395556zM589.368889 614.968889c-6.826667 3.413333-13.653333 6.826667-20.48 10.24-1.137778 1.137778-2.275556 3.413333-2.275556 4.551111 0 25.031111 0 50.062222 0 76.231111l0 20.48c0 6.826667 5.688889 11.377778 11.377778 11.377778 6.826667 0 11.377778-4.551111 11.377778-11.377778 0 0 0 0 0 0l0 0C590.506667 688.924444 589.368889 614.968889 589.368889 614.968889zM630.328889 552.391111 630.328889 657.066667c0 0 0 0 1.137778 0 14.791111-26.168889 29.582222-52.337778 45.511111-78.506667C661.048889 570.595556 645.12 561.493333 630.328889 552.391111z"  horiz-adv-x="1024" />

    
    <glyph glyph-name="next-copy" unicode="&#58907;" d="M672 384v0l-320 320-32-32 304-304-304-304 32-32 336 336z"  horiz-adv-x="1024" />

    
    <glyph glyph-name="fanhuidingbu" unicode="&#58908;" d="M179.2 747.52l670.72 0 0-76.8-670.72 0 0 76.8ZM512 640 512 640 189.44 343.04 240.64 286.72 476.16 501.76 476.16 10.24 547.84 10.24 547.84 501.76 778.24 286.72 829.44 343.04 512 640Z"  horiz-adv-x="1024" />

    
    <glyph glyph-name="xiangxiajiantou1" unicode="&#58909;" d="M897.070634 323.006857 511.721149-62.579011 129.77825 319.363887 175.002244 364.588905 479.687572 59.902554 479.687572 831.975824 543.644209 831.975824 543.644209 60.028421 851.84664 368.230851Z"  horiz-adv-x="1024" />

    
    <glyph glyph-name="jiache" unicode="&#58918;" d="M533.926 667.468c19.342-3.647 38.83-6.175 57.814-11.442 90.769-25.868 155.92-82.261 195.815-167.768 3.947-8.453 9.212-13.466 17.412-17.664 27.236-13.873 55.232-27.138 80.695-43.691 39.13-25.565 56.346-65.354 65.204-109.395 8.301-42.123 8.908-84.798 8.456-127.674 0-0.708-0.358-1.725-0.658-3.292h-101.045v45.814h54.976c-1.978 39.993-3.34 78.669-19.442 114.968-13.465 30.627-39.13 48.043-67.736 62.064-20.346 9.921-40.902 19.288-60.945 29.866-4.86 2.43-9.519 7.547-11.651 12.71-33.459 83.68-92.943 138.556-180.522 161.085-124.38 32.194-251.751-36.098-300.199-159.672-2.985-7.644-7.286-12.3-14.426-15.182-23.943-11.497-47.433-23.746-71.379-35.337-38.827-18.881-60.091-51.079-67.278-92.489-4.25-25.113-6.022-50.722-9.111-77.252h51.127v-47.082l-96.843 0v62.069c0.611 2.986 1.367 5.668 1.674 8.606 2.123 18.928 3.391 37.963 6.479 56.695 9.413 55.586 35.029 100.135 86.614 126.862 19.39 10.028 38.78 20.453 58.673 29.666 9.519 4.305 14.986 10.532 19.441 19.846 39.539 84.338 104.235 139.722 193.535 165.847 19.134 5.616 39.181 7.994 58.771 11.843 14.781-0.001 29.67-0.001 44.55-0.001v0zM720.226 98.865c-12.551 3.238-25.972 5.262-37.869 10.379-41.714 18.372-66.669 58.874-65.405 103.422 1.418 44.447 29.162 83.222 71.379 99.478 42.423 16.75 96.287 2.225 123.42-33.109 31.793-41.662 33.514-93.708 4.455-133.243-19.437-26.629-45.156-42.072-77.904-45.515-1.572-0.2-2.99-1.008-4.409-1.413-4.659 0-9.11 0-13.667 0v0zM663.624 209.020c0.102-34.726 29.059-63.836 63.631-63.23 34.581 0.253 62.825 28.855 63.029 63.23 0 34.83-28.802 63.888-63.482 63.888-34.731-0-63.375-28.956-63.179-63.888v0zM285.469 98.865c-12.656 3.238-26.019 5.262-37.814 10.379-41.616 18.122-66.725 58.874-65.358 103.422 1.366 44.447 29.162 83.222 71.282 99.478 42.423 16.853 96.184 2.225 123.522-33.109 31.635-41.662 33.407-93.708 4.199-133.243-19.39-26.629-45.006-42.072-77.807-45.515-1.47-0.2-3.040-1.008-4.557-1.413-4.406 0-8.91 0-13.467 0v0zM355.379 209.527c-0.252 35.029-29.563 64.039-63.985 63.38-34.675-0.708-62.471-28.956-62.569-63.687-0.055-34.727 28.649-63.683 63.328-63.428 34.778 0.052 63.482 29.005 63.226 63.735v0zM350.065 398.203c-3.745 65.655 16.858 120.079 72.34 156.877 54.219 35.542 112.234 38.070 168.626 6.027 62.372-35.385 86.772-91.829 82.415-162.904l-323.381 0zM400.184 444.52h223.652c-8.149 51.737-59.532 92.439-113.904 91.124-53.911-1.315-104.081-42.726-109.749-91.124v0zM422.76 186.746v45.053h173.035v-45.053h-173.035zM422.76 186.746z"  horiz-adv-x="1024" />

    
    <glyph glyph-name="gouwuche1" unicode="&#58910;" d="M644.745 110.784c-45.271 0-82.059-36.722-82.059-82.181 0-45.208 36.788-81.992 82.059-81.992 45.25 0 82.035 36.785 82.035 81.992 0 45.458-36.787 82.181-82.035 82.181zM263.656 110.784c-45.27 0-82.056-36.722-82.056-82.181 0-45.208 36.787-81.992 82.056-81.992 45.353 0 82.035 36.785 82.035 81.992 0 45.458-36.68 82.181-82.035 82.181zM872.011 821.18l-33.937-132.92h-838.054l169.477-526.402h573.212l127.055 494.106 33.582 129.177h120.632l-0 36.039h-151.967zM469.651 652.242h165.216l-18.176-123.833h-147.040v123.833zM49.45 652.242h190.834l10.645-123.833h-161.577l-39.903 123.833zM100.938 492.393h153.028l9.088-106.427h-127.931l-34.186 106.427zM195.721 197.895l-48.993 152.054h119.445l12.977-152.054h-83.429zM276.466 652.242h157.167v-123.833h-146.602l-10.565 123.833zM433.634 197.895h-118.301l-13.080 152.054h131.381l-0-152.054zM433.634 385.966h-134.417l-9.088 106.427h143.505v-106.427zM568.406 197.895h-98.755l-0 152.054h120.988l-22.232-152.054zM469.651 385.966v106.427h141.759l-15.493-106.427h-126.266zM713.284 197.895h-108.528l22.23 152.054h124.975l-38.678-152.054zM761.134 385.966h-128.867l15.578 106.427h140.386l-27.097-106.427zM797.4 528.409h-144.275l18.091 123.833h157.687l-31.504-123.833z"  horiz-adv-x="1024" />

    
    <glyph glyph-name="gantanhao" unicode="&#58884;" d="M510.819616 832.969455c-247.376087 0-447.911356-200.537316-447.911356-447.911356 0-247.375064 200.537316-447.912379 447.911356-447.912379 247.373017 0 447.910333 200.538339 447.910333 447.912379C958.729949 632.432139 758.193657 832.969455 510.819616 832.969455zM565.838697 200.997036c-4.304026-39.773865-44.400233-57.539484-77.266781-43.598984-17.422811 7.391341-26.725688 22.168905-30.475082 40.439014-0.731664 3.568269-0.721431 7.28901-1.055029 10.939143 0.330528 13.214976 2.604314 25.874297 11.30037 36.302811 11.763928 14.110369 27.502377 19.787672 45.427632 18.883069C549.142433 262.17949 569.587068 235.645161 565.838697 200.997036zM570.241984 552.892595c-3.03001-19.777439-9.705036-40.726563-13.772678-61.119009-5.066389-25.413809-9.984399-51.320852-13.888312-76.93216-3.738138-24.527626-6.14393-50.13791-9.04091-74.792427-1.233084-10.482749-2.225691-22.258956-3.337002-33.327036-12.129248 0-24.080441 0-36.077683 0-0.191358 0-0.426719 3.264347-0.511653 3.920286-4.075829 31.009248-7.610328 63.86147-12.422937 94.756107-4.552689 29.225625-10.200316 58.313104-16.052604 87.313601-3.606131 17.86488-8.855692 35.428907-13.081946 53.173037-1.325182 5.569856-2.995217 17.820877-2.407839 23.159466 2.520403 22.896476 16.21224 45.410236 45.017286 51.631938 6.346545 1.37123 23.953551 1.287319 24.78243 1.216711 22.76754-1.911536 41.772382-14.712073 49.218982-36.275181C573.66699 571.142238 570.939879 557.446307 570.241984 552.892595z"  horiz-adv-x="1024" />

    
    <glyph glyph-name="xiaolian" unicode="&#58911;" d="M512 792.736125c55.197136 0 108.721167-10.800997 159.086252-32.104185 48.667419-20.584827 92.38306-50.061163 129.934305-87.612407s67.027579-81.266885 87.612407-129.934305c21.303188-50.365084 32.104185-103.889115 32.104185-159.086252s-10.800997-108.721167-32.104185-159.086252c-20.584827-48.667419-50.061163-92.38306-87.612407-129.934305s-81.266885-67.027579-129.934305-87.612407c-50.365084-21.303188-103.889115-32.104185-159.086252-32.104185S403.278833-13.935128 352.913748 7.36806c-48.667419 20.584827-92.38306 50.061163-129.934305 87.612407s-67.027579 81.266885-87.612407 129.934305c-21.302165 50.365084-32.103162 103.889115-32.103162 159.086252s10.800997 108.721167 32.103162 159.086252c20.584827 48.667419 50.061163 92.38306 87.612407 129.934305s81.266885 67.027579 129.934305 87.612407C403.278833 781.935128 456.802864 792.736125 512 792.736125M512 833.610044c-248.312412 0-449.610044-201.297632-449.610044-449.610044s201.296609-449.610044 449.610044-449.610044 449.610044 201.297632 449.610044 449.610044S760.312412 833.610044 512 833.610044L512 833.610044zM332.538699 483.842962m-61.310368 0a59.914 59.914 0 1 0 122.620735 0 59.914 59.914 0 1 0-122.620735 0ZM661.23079 483.842962m-61.310368 0a59.914 59.914 0 1 0 122.620735 0 59.914 59.914 0 1 0-122.620735 0ZM512 86.193337c125.455293 0 227.15044 101.695147 227.15044 227.140207L284.84956 313.333544C284.84956 187.888484 386.544707 86.193337 512 86.193337z"  horiz-adv-x="1024" />

    
    <glyph glyph-name="pad" unicode="&#58885;" d="M787.865 840.465h-520.689c-43.251 0-78.435-35.175-78.435-78.426v-722.652c0-43.251 35.184-78.426 78.435-78.426l520.689-0c43.251 0 78.434 35.175 78.434 78.426v722.653c0 43.25-35.183 78.425-78.434 78.425zM838.549 39.388c0-27.949-22.736-50.676-50.684-50.676h-520.689c-27.949 0-50.685 22.728-50.685 50.676l-0 722.652c0 27.949 22.737 50.676 50.685 50.676l520.689-0c27.949 0 50.684-22.728 50.684-50.676l0-722.652zM274.303 116.657h506.434l0 608.184h-506.434l-0-608.184zM302.053 697.092h450.935v-552.685l-450.935 0v552.685zM566.507 792.12h-77.974v-42.817h77.974v42.817zM548.008 767.803h-40.974v5.817h40.974v-5.817zM527.52 88.149c-54.206 0-54.065-84.027 0-84.027 54.031 0 54.276 84.027 0 84.027zM527.52 22.622c-30.319 0-30.315 47.027 0 47.027 30.314-0.001 30.319-47.027 0-47.027z"  horiz-adv-x="1024" />

    
    <glyph glyph-name="guanbi" unicode="&#58912;" d="M1023.826329 397.350909c-6.99649 276.585104-233.402403 498.649091-511.670207 498.649091-4.460787 0-8.90759-0.058265-13.341575-0.1713C222.139714 888.834541 0.002313 662.35871 0.002313 383.997681c0-282.769377 229.228281-511.997658 511.997658-511.997658s511.997658 229.228281 511.997658 511.997658C1023.998794 388.461964 1023.940529 392.913428 1023.826329 397.350909zM512.156122-85.890521c-259.603117 0-470.054841 210.447063-470.054841 470.050179 0 259.607778 210.451724 470.057171 470.054841 470.057171s470.050179-210.449393 470.050179-470.057171C982.207466 124.556542 771.760404-85.890521 512.156122-85.890521zM674.652055 590.976796 512.157287 428.480863 349.661353 590.976796l-44.316543-44.318874 162.494768-162.495934L305.343645 221.66489l44.316543-44.318874L512.157287 339.843115l162.494768-162.497099 44.318874 44.318874L556.474995 384.161989l162.495934 162.495934L674.652055 590.976796z"  horiz-adv-x="1024" />

    
    <glyph glyph-name="tupian" unicode="&#58913;" d="M623.080911 511.871319c0 0 45.775556 0.539282 45.775556-51.024094 0 0 4.229325-49.901527-45.775556-50.999534 0 0-44.823881-1.122567-44.387953 50.999534C578.692958 460.869738 578.177212 507.060757 623.080911 511.871319L623.080911 511.871319 623.080911 511.871319zM713.26284 590.278063c0 0 24.089651-2.134617 24.089651-26.290783L737.352491 203.750753c0 0-1.408069-25.746384-24.089651-26.328645L713.26284 590.278063 713.26284 590.278063 713.26284 590.278063zM283.553031 203.706751c0 0 0.994654-26.328645 23.178909-26.328645l406.529877 0 0 76.273151-44.322461 0-90.248444 104.135732-67.997674-77.784574-92.548836 129.887232-91.139743-155.158802-20.273742-0.51677-0.497327 309.754786-22.639626 0 0-360.261087L283.553031 203.707774 283.553031 203.706751zM713.26284 590.278063 306.691007 590.278063c0 0-23.136953 0.539282-23.136953-26.290783l429.66683 0 0 26.290783L713.26284 590.278063 713.26284 590.278063zM713.26284 590.278063M510.464017-61.991634c-245.838058 0-445.820742 199.98166-445.820742 445.820742S264.62596 829.649849 510.464017 829.649849c245.820662 0 445.819718-199.983707 445.819718-445.821765S756.284679-61.991634 510.464017-61.991634L510.464017-61.991634zM510.464017 787.190829c-222.432998 0-403.361721-180.952258-403.361721-403.362744s180.928722-403.356604 403.361721-403.356604c222.410486 0 403.357628 180.946119 403.357628 403.356604S732.874503 787.190829 510.464017 787.190829L510.464017 787.190829zM510.464017 787.190829"  horiz-adv-x="1024" />

    
    <glyph glyph-name="dingdan" unicode="&#58914;" d="M689.115 680.283c30.463 0 55.187 23.586 55.187 52.677l0 52.678c0 29.117-24.724 52.677-55.187 52.677-30.521 0-55.243-23.56-55.243-52.676l0-52.68C633.871 703.869 658.593 680.283 689.115 680.283zM334.029 680.283c30.464 0 55.187 23.586 55.187 52.677l0 52.678c0 29.117-24.723 52.677-55.187 52.677-30.521 0-55.244-23.56-55.243-52.676l0-52.68C278.785 703.869 303.508 680.283 334.029 680.283zM780.465 754.852l0-32.378c0-40.823-41.172-73.92-91.902-73.92-50.824 0-91.996 33.098-91.996 73.92l0 36.961L425.259 759.435l0-36.961c0-40.823-41.17-73.92-91.902-73.92-50.824 0-91.995 33.098-91.995 73.92l0 31.732c-48.181-14.904-83.205-59.989-83.205-113.313l0-592.667c0-65.467 52.811-118.541 117.943-118.541l471.791 0c65.137 0 117.953 53.074 117.953 118.541L865.844 640.893C865.844 695.013 829.762 740.647 780.465 754.852zM736.789 76.252 287.212 76.252c-18.627 0-33.719 15.651-33.719 34.969s15.092 34.969 33.719 34.969l449.577 0c18.626 0 33.718-15.651 33.718-34.969S755.415 76.252 736.789 76.252zM736.789 261.946 287.212 261.946c-18.627 0-33.719 15.65-33.719 34.969 0 19.316 15.092 34.969 33.719 34.969l449.577 0c18.626 0 33.718-15.652 33.718-34.969C770.507 277.597 755.415 261.946 736.789 261.946zM736.789 447.64 287.212 447.64c-18.627 0-33.719 15.651-33.719 34.969 0 19.316 15.092 34.968 33.719 34.968l449.577 0c18.626 0 33.718-15.652 33.718-34.968C770.507 463.291 755.415 447.64 736.789 447.64z"  horiz-adv-x="1024" />

    
    <glyph glyph-name="liebiao" unicode="&#58915;" d="M426.666667 682.666667l469.333333 0 0-85.333333L426.666667 597.333333 426.666667 682.666667zM426.666667 170.666667l469.333333 0 0-85.333333L426.666667 85.333333 426.666667 170.666667zM426.666667 426.666667l469.333333 0 0-85.333333L426.666667 341.333333 426.666667 426.666667zM213.333333 725.333333l85.333333 0c23.594667 0 42.666667-19.072 42.666667-42.666667l0-85.333333c0-23.594667-19.072-42.666667-42.666667-42.666667L213.333333 554.666667C189.738667 554.666667 170.666667 573.738667 170.666667 597.333333L170.666667 682.666667C170.666667 706.261333 189.738667 725.333333 213.333333 725.333333zM213.333333 469.333333l85.333333 0c23.594667 0 42.666667-19.072 42.666667-42.666667l0-85.333333c0-23.594667-19.072-42.666667-42.666667-42.666667L213.333333 298.666667c-23.594667 0-42.666667 19.072-42.666667 42.666667l0 85.333333C170.666667 450.261333 189.738667 469.333333 213.333333 469.333333zM213.333333 213.333333l85.333333 0c23.594667 0 42.666667-19.072 42.666667-42.666667l0-85.333333c0-23.594667-19.072-42.666667-42.666667-42.666667L213.333333 42.666667c-23.594667 0-42.666667 19.072-42.666667 42.666667l0 85.333333C170.666667 194.261333 189.738667 213.333333 213.333333 213.333333z"  horiz-adv-x="1024" />

    
    <glyph glyph-name="comiiszhifubao" unicode="&#58916;" d="M141.859803 370.357394c-7.913635-0.784468-22.767564-4.279099-30.890057-11.440244-24.35049-21.161652-9.781368-59.86721 39.489026-59.86721 28.634586 0 57.257979 18.263617 79.735739 47.491601C198.225587 362.100992 171.12696 373.237441 141.859803 370.357394L141.859803 370.357394zM325.635803 343.611727c45.603881-15.229674 55.947867-16.049119 55.947867-16.049119l0 163.74558c0 27.945053-22.686618 50.591499-50.712417 50.591499L115.619794 541.899688c-28.031994 0-50.729405-22.646646-50.729405-50.591499l0-214.618888c0-27.93506 22.697611-50.585503 50.729405-50.585503l215.25146 0c28.025998 0 50.712417 22.644647 50.712417 50.585503l0 2.070596c0 0-82.37395 34.240785-123.972547 54.185063-27.892089-34.220798-63.884486-54.998511-101.246155-54.998511-63.187959 0-84.64641 55.136418-54.728694 91.435807 6.527574 7.901643 17.624051 15.463516 34.849372 19.699644 26.935738 6.598526 69.821461-4.121206 110.006216-17.347239 7.224102 13.283993 13.304979 27.900084 17.839905 43.472526L140.479739 415.207186l0 12.511517 63.857505 0 0 22.4188L126.995081 450.137503l0 12.518512 77.342362 0 0 31.986113c0 0 0 5.391345 5.478286 5.391345l31.20884 0 0-37.377458 76.471952 0 0-12.518512-76.471952 0 0-22.4188 62.424476 0c-5.971951-24.396459-15.051795-46.856032-26.432079-66.576661 18.941158-6.827371 35.952624-13.302981 48.619836-17.530115L325.635803 343.611927zM832.357046 492.392454l90.659333 0 0-17.943834 32.370853 0 0 21.260585c-0.008994 0.050965-0.008994 0.068953-0.008994 0.126914 0 4.777761-3.747459 8.645139-8.385315 8.726084l-52.399273 0 0 16.732655-33.881828 0 0-16.732655-60.730625 0 0-30.113583 32.376049 0L832.357246 492.392454zM636.219427 519.745708 603.021136 441.240135l25.463736 0 0-93.425458 27.84712 0 0 123.920782-10.082164 0 20.976778 48.010249L636.219427 519.745708zM959.10571 352.107767l-10.175101 34.355707c-0.667547 2.190515-2.661196 3.779438-5.015599 3.785433l-26.951727 0 7.809705-26.391107-31.691313 0 0 51.112146 62.237603 0 0 12.175745-62.237603 0 0 24.054691 62.237603 0 0 12.169749-155.338281 0 0-12.169749 62.234605 0 0-24.054691-62.234605 0 0-12.175745 62.234605 0 0-51.112146-62.234605 0 0-12.175745 159.124713 0-0.129912 0.417717 0.129912 0L959.10571 352.107767zM707.431945 455.39254c-1.060281 2.155539-3.224814 3.645528-5.728116 3.663516l-24.106656 0 18.773272-59.137705 28.52466 0-17.46316 55.473189L707.431945 455.39254zM768.459568 518.319675l-28.942377 0 0-30.240497-71.329439 0 0-12.169749 71.329439 0 0-108.713093c-0.248831-2.481318-2.207503-4.427998-4.672832-4.55791l-14.704031 0 0-12.597459 37.506371 0c5.930979 0.249831 10.683756 5.17649 10.812669 11.276355l0 114.592107 11.751033 0 0 12.169749-11.751033 0L768.459369 518.319675 768.459568 518.319675zM587.879402 463.230226l-55.595107 0 0 19.921493 64.457098 0 0 12.406588-64.457098 0 0 25.243885-28.739515-0.005996c-3.147866 0-5.69314-2.632215-5.69314-5.891006l0-19.346883-64.007403 0 0-12.406588 64.007403 0 0-19.921493-54.023172 0 0-12.401592 107.605843 0c0 0-5.960958-23.278217-35.476947-48.301052-26.443072 20.020426-35.284077 35.963417-35.284077 35.963417l-28.868427 0c11.678082-20.239278 28.276828-36.450287 46.144514-49.309368-16.412872-10.666768-37.702238-20.953793-65.229574-29.173221l0-14.859925c0 0 42.468207 8.012567 83.51018 32.194972 41.105131-23.990734 82.390939-32.194972 82.390939-32.194972l0 14.064464c-26.421087 9.618479-47.353694 20.193309-63.797545 30.403387C558.646222 407.247382 579.511075 431.197944 587.879402 463.230226L587.879402 463.230226zM496.639462 264.837136l4.805742-14.510162 13.472865 0-26.535009 72.052948-10.303015 0-26.437076-72.052948 13.479861 0 5.0146 14.510162L496.639462 264.837136 496.639462 264.837136zM483.606299 303.810712l9.966243-29.88174-20.292242 0L483.606299 303.810712 483.606299 303.810712zM557.434044 322.380122l0-72.052948 43.622424 0 0 9.809349-30.665209 0 0 62.243599L557.434044 322.380122zM648.597035 322.380122l12.971206 0 0-72.048951-12.971206 0L648.597035 322.380122zM742.108434 322.380122l-28.002015 0 0-72.052948 12.958214 0 0 27.695223 15.0438 0c13.972527 0 23.735907 9.121815 23.735907 22.176964 0 13.057147-9.76338 22.18296-23.735907 22.18296M741.384925 287.923484l-14.320291 0 0 24.653285 14.320291 0c7.189126 0 11.483214-6.289736 11.483214-12.377608C752.868139 294.249195 748.844867 287.923484 741.384925 287.923484zM841.951541 264.837136l4.805742-14.510162 13.473865 0-26.542005 72.052948-10.297019 0-26.438075-72.052948 13.487855 0 5.002608 14.510162L841.951541 264.837136 841.951541 264.837136zM828.918377 303.810712l9.964244-29.88174-20.290243 0L828.918377 303.810712 828.918377 303.810712zM932.424001 322.380122l-14.137415-30.697187-14.353268 30.697187-14.006504 0 21.819007-42.457014 0-29.595934 12.862279 0 0 29.595934 0.081944 0.16189 21.74106 42.295324L932.424001 322.380322z"  horiz-adv-x="1024" />

    
    <glyph glyph-name="chenggong" unicode="&#58917;" d="M510.475707-62.471549c-242.193155 0-438.533533 196.332313-438.533533 438.537566 0 242.189123 196.340378 438.535549 438.533533 438.535549 242.209285 0 438.539582-196.346427 438.539582-438.535549C949.015289 133.861772 752.684993-62.471549 510.475707-62.471549zM510.49587 770.445471c-217.469775 0-394.390544-176.773582-394.390544-394.04778s176.921777-394.918804 394.390544-394.918804c217.463726 0 394.380463 177.644607 394.380463 394.918804S727.958588 770.445471 510.49587 770.445471zM469.296621 227.714644c-11.414048-11.418081-29.918275-11.418081-41.333331 0L303.966322 351.707579c-11.410016 11.403967-11.410016 29.910209 0 41.331314 11.414048 11.403967 29.920291 11.403967 41.335347 0l103.328286-103.328286 227.325254 227.319205c11.412032 11.420097 29.918275 11.420097 41.331314 0 11.414048-11.405983 11.414048-29.910209 0-41.331314L469.296621 227.714644z"  horiz-adv-x="1024" />

    
    <glyph glyph-name="zhuceiconmimabukejian13" unicode="&#58927;" d="M513.512727 616.727273c166.493091 0 309.783273-95.255273 376.855273-232.727273L930.909091 384.023273C863.813818 547.700364 701.672727 663.272727 511.976727 663.272727 322.327273 663.272727 160.186182 547.700364 93.090909 384.023273L136.704 384C203.752727 521.472 347.066182 616.727273 513.512727 616.727273zM513.512727 151.272727c-166.446545 0-309.76 95.255273-376.808727 232.727273L93.090909 384.023273C160.186182 220.299636 322.327273 104.727273 511.976727 104.727273 701.672727 104.727273 863.813818 220.299636 930.909091 384.023273L890.368 384C823.296 246.528 680.005818 151.272727 513.512727 151.272727zM373.899636 384c0-77.125818 62.510545-139.636364 139.636364-139.636364 77.125818 0 139.636364 62.510545 139.636364 139.636364 0 77.125818-62.510545 139.636364-139.636364 139.636364C436.410182 523.636364 373.899636 461.125818 373.899636 384zM606.184727 384c0-51.409455-42.193455-93.114182-94.184727-93.114182-52.014545 0-94.161455 41.704727-94.161455 93.114182 0 51.409455 42.146909 93.114182 94.161455 93.114182C564.014545 477.114182 606.184727 435.409455 606.184727 384z"  horiz-adv-x="1024" />

    
    <glyph glyph-name="zhuceiconmimakejian21" unicode="&#58928;" d="M513.512727 616.727273c166.493091 0 309.783273-95.255273 376.855273-232.727273L930.909091 384.023273C863.813818 547.700364 701.672727 663.272727 511.976727 663.272727 322.327273 663.272727 160.186182 547.700364 93.090909 384.023273L136.704 384C203.752727 521.472 347.066182 616.727273 513.512727 616.727273zM513.512727 151.272727c-166.446545 0-309.76 95.255273-376.808727 232.727273L93.090909 384.023273C160.186182 220.299636 322.327273 104.727273 511.976727 104.727273 701.672727 104.727273 863.813818 220.299636 930.909091 384.023273L890.368 384C823.296 246.528 680.005818 151.272727 513.512727 151.272727zM373.899636 384c0-77.125818 62.510545-139.636364 139.636364-139.636364 77.125818 0 139.636364 62.510545 139.636364 139.636364 0 77.125818-62.510545 139.636364-139.636364 139.636364C436.410182 523.636364 373.899636 461.125818 373.899636 384z"  horiz-adv-x="1024" />

    
    <glyph glyph-name="cart" unicode="&#58887;" d="M942.640386 560.611801l-100.359156-282.088144c-13.994712-39.237397-51.363775-65.626705-93.08269-65.626705l-391.822944 0c-47.013925 0-87.750905 33.4803-96.881914 79.57285l-66.411973 335.963217L172.109806 729.198499l-73.571319 0c-11.715057 0-21.186835 9.437202-21.186835 21.113285 0 11.716856 9.475975 21.148062 21.186835 21.148062l90.614963 0c0.661951 0 1.230366-0.334973 1.859339-0.378543 1.490789-0.137107 2.878049-0.405525 4.289292-0.850623 1.274136-0.405525 2.43375-0.823841 3.579773-1.458811 1.23836-0.63397 2.279854-1.375467 3.364119-2.234085 1.092259-0.859617 2.018432-1.719234 2.913824-2.763726 0.813848-1.009715 1.524566-2.089983 2.150542-3.248797 0.709519-1.257148 1.31271-2.534282 1.75501-3.909549 0.188872-0.634969 0.641965-1.128035 0.788066-1.789787l21.968106-100.84023 644.818413 0c22.7134 0 44.095104-11.045111 57.173636-29.585541 13.15588-18.543428 16.391886-42.384663 8.819021-63.807139l0 0L942.640386 560.611801zM899.251004 600.008091c-5.232452 7.426765-13.46607 11.715857-22.593082 11.715857l-636.122709 0 61.479717-311.056504c5.22146-26.340741 28.509271-45.447587 55.364863-45.447587l391.826941 0c23.841436 0 45.219141 15.083973 53.210323 37.49318l100.355159 282.087145c3.028147 8.573587 1.789986 17.759159-3.513018 25.212706l0 0L899.251004 600.008091zM342.00042 167.025653c47.084477 0 85.361725-38.219687 85.361725-85.228615 0-47.013925-38.286242-85.259394-85.361725-85.259394-47.048701 0-85.320952 38.252465-85.320952 85.259394C256.680467 128.797172 294.948921 167.025653 342.00042 167.025653L342.00042 167.025653 342.00042 167.025653zM342.00042 38.812181c23.722116 0 43.014836 19.278729 43.014836 42.971066 0 23.673349-19.295718 42.926296-43.014836 42.926296-23.696334 0-42.971066-19.254945-42.971066-42.926296C299.029354 58.074122 318.31308 38.812181 342.00042 38.812181L342.00042 38.812181 342.00042 38.812181zM719.163703 167.025653c47.060493 0 85.328947-38.219687 85.328947-85.228615 0-47.013925-38.263457-85.259394-85.328947-85.259394-47.03471 0-85.303164 38.252465-85.303164 85.259394C633.860738 128.797172 672.137986 167.025653 719.163703 167.025653L719.163703 167.025653 719.163703 167.025653zM719.163703 38.812181c23.727113 0 43.019833 19.278729 43.019833 42.971066 0 23.673349-19.301514 42.926296-43.019833 42.926296-23.722116 0-42.997847-19.254945-42.997847-42.926296C676.160859 58.074122 695.43679 38.812181 719.163703 38.812181L719.163703 38.812181 719.163703 38.812181z"  horiz-adv-x="1024" />

    
    <glyph glyph-name="picture" unicode="&#58888;" d="M284.332032 718.70976c79.816704 0 145.328128-65.619968 145.328128-145.246208 0-79.816704-65.511424-145.436672-145.328128-145.436672s-145.3312 65.619968-145.3312 145.436672C138.999808 653.089792 204.515328 718.70976 284.332032 718.70976L284.332032 718.70976zM39.358464 821.154816l0.973824 0 944.241664 0c21.746688 0 39.431168-17.485824 39.431168-39.250944l0-0.976896 0-794.630144c0-21.76512-17.68448-39.452672-39.431168-39.452672l-0.973824 0L39.358464-53.15584c-21.76512 0-39.353344 17.687552-39.353344 39.452672l0 0.976896L0.00512 781.903872C0.00512 803.668992 17.593344 821.154816 39.358464 821.154816L39.358464 821.154816zM970.703872 763.559936 53.200896 763.559936l0-596.59776 197.382144 197.489664c9.77408 9.669632 25.720832 9.669632 35.495936 0l149.249024-149.334016L655.228928 435.019776c9.77408 9.669632 25.616384 9.669632 35.390464 0l280.08448-279.980032L970.703872 763.559936 970.703872 763.559936zM53.200896 96.207872l0-91.551744 917.502976 0 0 79.62624L672.925696 381.935616 470.71744 179.728384l71.368704-71.389184c9.669632-9.669632 9.669632-25.510912 0-35.180544-9.77408-9.856-25.698304-9.856-35.472384 0l-87.63392 87.63392-0.525312 0.41984-0.400384 0.41984-0.525312 0.400384-0.295936 0.610304-0.528384 0.20992-0.397312 0.610304L268.38528 311.38816 53.200896 96.207872 53.200896 96.207872zM284.332032 668.722176c-52.558848 0-95.343616-42.784768-95.343616-95.258624 0-52.66432 42.784768-95.449088 95.343616-95.449088 52.555776 0 95.340544 42.784768 95.340544 95.449088C379.672576 625.937408 336.887808 668.722176 284.332032 668.722176L284.332032 668.722176z"  horiz-adv-x="1025" />

    
    <glyph glyph-name="kulian" unicode="&#58919;" d="M512 768c-211.84 0-384-172.16-384-384s172.16-384 384-384 384 172.16 384 384-172.16 384-384 384zM357.76 498.56c-7.68 7.68-7.68 19.84 0 26.88 7.68 7.68 19.84 7.68 26.88 0l57.6-57.6c7.68-7.68 7.68-19.84 0-26.88l-57.6-57.6c-3.84-3.84-8.32-5.76-13.44-5.76s-9.6 1.92-13.44 5.76c-7.68 7.68-7.68 19.84 0 26.88l44.16 44.16-44.16 44.16zM662.4 208c-3.2-1.92-7.040-3.2-10.24-3.2-6.4 0-12.8 3.2-16 8.96-27.52 42.24-73.6 67.84-124.16 67.84s-96.64-25.6-124.16-67.84c-5.76-8.96-17.28-11.52-26.24-5.76-8.96 5.76-11.52 17.28-5.76 26.24 34.56 53.76 92.8 85.76 156.16 85.76s121.6-32 156.16-85.76c5.76-8.96 3.2-20.48-5.76-26.24zM666.24 410.24c7.68-7.68 7.68-19.84 0-26.88-3.84-3.84-8.96-5.76-13.44-5.76s-9.6 1.92-13.44 5.76l-57.6 57.6c-7.68 7.68-7.68 19.84 0 26.88l57.6 57.6c7.68 7.68 19.84 7.68 26.88 0 7.68-7.68 7.68-19.84 0-26.88l-44.16-44.16 44.16-44.16z"  horiz-adv-x="1024" />

    
    <glyph glyph-name="gongsi" unicode="&#58889;" d="M226.053967 637.345032l128.418788 0 0-94.91779L226.053967 542.427242 226.053967 637.345032 226.053967 637.345032zM417.750941 637.345032l128.418788 0 0-94.91779L417.750941 542.427242 417.750941 637.345032 417.750941 637.345032 417.750941 637.345032zM226.053967 477.303013l128.418788 0 0-94.91779L226.053967 382.385223 226.053967 477.303013 226.053967 477.303013zM417.750941 477.303013l128.418788 0 0-94.91779L417.750941 382.385223 417.750941 477.303013 417.750941 477.303013 417.750941 477.303013zM736.003262 477.303013l63.279209 0 0-94.91779-63.279209 0L736.003262 477.303013 736.003262 477.303013zM736.003262 319.107037l63.279209 0 0-94.947466-63.279209 0L736.003262 319.107037 736.003262 319.107037zM226.053967 319.107037l128.418788 0 0-94.947466L226.053967 224.159572 226.053967 319.107037 226.053967 319.107037zM417.750941 319.107037l128.418788 0 0-94.947466L417.750941 224.159572 417.750941 319.107037 417.750941 319.107037 417.750941 319.107037zM927.716608 30.600181 927.716608 605.706451 672.7261 605.706451 672.7261 797.417751 97.61983 797.417751l0-764.940826L65.981249 32.476925l0-63.278185 893.374964 0 0 63.278185-31.639604 0L927.716608 30.600181zM160.899038 30.600181 160.899038 734.139565 607.60187 734.139565l0-701.662641L160.899038 32.476925 160.899038 30.600181zM672.7261 30.600181l0 511.827061 191.712323 0 0-509.950318L672.7261 32.476925 672.7261 30.600181zM672.7261 30.600181"  horiz-adv-x="1024" />

    
    <glyph glyph-name="find" unicode="&#58890;" d="M948.032-6.784l-206.976 206.976C797.696 267.072 832 353.472 832 448c0 212.064-171.936 384-384 384S64 660.064 64 448s171.936-384 384-384c94.528 0 180.928 34.304 247.808 90.912l206.976-206.976c14.016-14.016 35.488-15.232 48-2.72C963.264-42.272 962.048-20.8 948.032-6.784zM448 128C271.264 128 128 271.264 128 448S271.264 768 448 768s320-143.264 320-320S624.736 128 448 128z"  horiz-adv-x="1024" />

    
    <glyph glyph-name="coordinate" unicode="&#58891;" d="M536.526-115.236c192.116 269.887 279.061 433.592 288.956 452.562l0.114-0.065c34.020 56.623 52.004 121.653 52.004 188.043 0 97.661-38.029 189.473-107.079 258.522-69.059 69.050-160.864 107.083-258.527 107.083-97.656 0-189.47-38.031-258.519-107.084-69.054-69.056-107.084-160.861-107.084-258.522 0-66.389 17.98-131.414 52.009-188.052l0.025 0.020c11.499-24.323 91.593-187.758 289.432-453.059 0.734-0.99 1.529-1.945 2.386-2.851 0.101-0.1 0.209-0.204 0.305-0.313 0.261-0.259 0.527-0.532 0.803-0.796 0.197-0.179 0.393-0.363 0.589-0.547 0.176-0.149 0.356-0.308 0.537-0.463 0.264-0.229 0.534-0.458 0.801-0.672 0.106-0.080 0.206-0.159 0.308-0.234 0.94-0.736 1.912-1.398 2.91-2.010 0.083-0.045 0.164-0.095 0.244-0.139 1.246-0.741 2.539-1.383 3.871-1.93 0.229-0.095 0.453-0.174 0.679-0.269 0.408-0.144 0.809-0.294 1.216-0.423 0.284-0.104 0.562-0.194 0.851-0.274 0.398-0.129 0.803-0.234 1.214-0.338 0.443-0.114 0.891-0.214 1.34-0.308 0.406-0.085 0.793-0.164 1.197-0.229 0.305-0.050 0.615-0.095 0.922-0.129 0.386-0.055 0.773-0.1 1.159-0.134 0.271-0.025 0.547-0.045 0.824-0.070 0.602-0.035 1.202-0.070 1.801-0.070 0.052 0 0.098 0 0.151 0 0.008 0 0.018 0 0.025 0 0.005 0 0.018 0 0.025 0 0.052 0 0.098 0 0.149 0 0.622 0 1.246 0.035 1.866 0.070 0.284 0.025 0.554 0.060 0.839 0.080 0.413 0.035 0.811 0.080 1.214 0.139 0.313 0.050 0.622 0.090 0.94 0.139 0.443 0.075 0.876 0.164 1.313 0.264 0.463 0.095 0.92 0.209 1.383 0.333 0.388 0.104 0.766 0.204 1.149 0.318 0.313 0.104 0.612 0.209 0.92 0.308 0.408 0.144 0.806 0.299 1.219 0.458 0.239 0.090 0.483 0.179 0.726 0.289 0.642 0.274 1.284 0.567 1.91 0.891 0.095 0.050 0.184 0.104 0.284 0.154 0.592 0.308 1.174 0.642 1.756 0.995 0.1 0.070 0.204 0.134 0.308 0.199 1 0.632 1.955 1.318 2.876 2.065 0.1 0.080 0.214 0.169 0.318 0.254 0.239 0.204 0.488 0.418 0.726 0.637 0.204 0.174 0.398 0.353 0.592 0.527 0.179 0.169 0.353 0.348 0.537 0.517 0.274 0.279 0.552 0.557 0.816 0.841 0.104 0.104 0.194 0.209 0.284 0.313 0.868 0.935 1.654 1.925 2.38 2.96v0zM248.26 370.698c-27.438 46.701-41.93 100.084-41.93 154.605 0 81.641 31.793 158.406 89.523 216.136 57.736 57.736 134.493 89.531 216.141 89.531 81.643 0 158.408-31.796 216.139-89.531 57.731-57.731 89.531-134.496 89.531-216.136 0-54.529-14.497-107.921-41.945-154.63-0.995-1.333-1.9-2.751-2.687-4.289-0.821-1.582-80.631-155.605-261.572-413.249-187.255 255.823-258.816 409.652-259.904 412.011-0.912 2.004-2.030 3.856-3.298 5.551v0zM511.996 303.535c122.279 0 221.766 99.484 221.766 221.768 0 122.274-99.487 221.758-221.766 221.758-122.282 0-221.758-99.484-221.758-221.758-0-122.284 99.477-221.768 221.758-221.768v0zM511.996 687.124c89.235 0 161.826-72.593 161.826-161.821 0-89.235-72.591-161.834-161.826-161.834-89.233 0-161.829 72.598-161.829 161.834 0.001 89.228 72.596 161.821 161.829 161.821v0z"  horiz-adv-x="1024" />

    
    <glyph glyph-name="weixin" unicode="&#58924;" d="M249.173333 560.128c0-10.922667 4.437333-21.504 11.946667-29.013333 7.509333-7.509333 18.432-11.946667 29.013333-11.946667 10.922667 0 21.504 4.437333 29.013333 11.946667 7.509333 7.509333 11.946667 18.432 11.946667 29.013333 0 10.922667-4.437333 21.504-11.946667 29.013333-7.509333 7.509333-18.432 11.946667-29.013333 11.946667-10.922667 0-21.504-4.437333-29.013333-11.946667C253.610667 581.632 249.173333 570.709333 249.173333 560.128L249.173333 560.128zM249.173333 560.128M569.344 347.136c0-8.533333 3.413333-16.725333 9.557333-22.869333 5.802667-5.802667 14.336-9.557333 22.869333-9.557333 8.533333 0 16.725333 3.413333 22.869333 9.557333 5.802667 5.802667 9.557333 14.336 9.557333 22.869333 0 8.533333-3.413333 16.725333-9.557333 22.869333-5.802667 5.802667-14.336 9.557333-22.869333 9.557333-8.533333 0-16.725333-3.413333-22.869333-9.557333C573.098667 364.202667 569.344 355.669333 569.344 347.136L569.344 347.136zM569.344 347.136M459.093333 560.128c0-10.922667 4.437333-21.504 11.946667-29.013333 7.509333-7.509333 18.432-11.946667 29.013333-11.946667 10.922667 0 21.504 4.437333 29.013333 11.946667 7.509333 7.509333 11.946667 18.432 11.946667 29.013333 0 10.922667-4.437333 21.504-11.946667 29.013333-7.509333 7.509333-18.432 11.946667-29.013333 11.946667-10.922667 0-21.504-4.437333-29.013333-11.946667C463.530667 581.632 459.093333 570.709333 459.093333 560.128L459.093333 560.128zM459.093333 560.128M842.069333 868.693333 181.930667 868.693333C94.549333 868.693333 23.893333 797.696 23.893333 709.973333l0-659.456c0-87.722667 70.997333-158.72 158.378667-158.72l660.138667 0c87.381333 0 158.378667 70.997333 158.378667 158.72L1000.789333 709.973333C1000.448 797.696 929.450667 868.693333 842.069333 868.693333L842.069333 868.693333zM390.144 214.357333c-36.864 0-66.56 7.509333-103.765333 15.018667l-103.424-51.882667 29.696 89.088c-74.069333 51.882667-118.442667 118.442667-118.442667 200.021333 0 140.970667 133.461333 251.904 296.277333 251.904 145.749333 0 273.066667-88.746667 298.666667-207.872-9.557333 1.024-18.773333 1.706667-28.672 1.706667-140.629333 0-251.904-105.130667-251.904-234.496 0-21.504 3.413333-42.325333 9.216-62.122667C408.917333 214.698667 399.701333 214.357333 390.144 214.357333L390.144 214.357333zM827.050667 110.592l22.186667-74.069333-81.237333 44.373333c-29.696-7.509333-59.392-15.018667-88.746667-15.018667-140.970667 0-251.904 96.256-251.904 215.04 0 118.442667 110.933333 215.04 251.904 215.04 133.12 0 251.562667-96.597333 251.562667-215.04C930.816 214.357333 886.442667 154.965333 827.050667 110.592L827.050667 110.592zM827.050667 110.592M730.794667 347.136c0-8.533333 3.413333-16.725333 9.557333-22.869333 5.802667-5.802667 14.336-9.557333 22.869333-9.557333 8.533333 0 16.725333 3.413333 22.869333 9.557333 5.802667 5.802667 9.557333 14.336 9.557333 22.869333 0 8.533333-3.413333 16.725333-9.557333 22.869333-5.802667 5.802667-14.336 9.557333-22.869333 9.557333-8.533333 0-16.725333-3.413333-22.869333-9.557333C734.208 364.202667 730.794667 355.669333 730.794667 347.136L730.794667 347.136zM730.794667 347.136"  horiz-adv-x="1024" />

    
    <glyph glyph-name="preview" unicode="&#58892;" d="M231.753 348.616c-12.162 0-22.080 9.897-22.080 22.097 0 12.144 9.918 22.045 22.080 22.045h118.121c12.166 0 22.084-9.902 22.084-22.045 0-12.2-9.918-22.097-22.084-22.097h-118.121zM231.753 101.616c-12.162 0-22.080 9.904-22.080 22.099 0 12.142 9.918 22.044 22.080 22.044h489.799c12.22 0 22.138-9.903 22.138-22.044 0-12.201-9.917-22.099-22.138-22.099h-489.799zM231.753 595.611c-12.162 0-22.080 9.904-22.080 22.044 0 12.201 9.918 22.099 22.080 22.099h118.121c12.166 0 22.084-9.898 22.084-22.099 0-12.141-9.918-22.044-22.084-22.044h-118.121zM622.020 250.783c57.028 0 108.683 23.045 146.051 60.347 37.308 37.305 60.45 88.878 60.45 145.807 0 56.93-23.142 108.443-60.45 145.747-37.368 37.309-89.024 60.413-146.051 60.413-57.025 0-108.68-23.103-145.99-60.413-37.368-37.305-60.509-88.818-60.509-145.747 0-56.929 23.142-108.502 60.451-145.807 37.367-37.303 89.024-60.347 146.048-60.347v0 0zM799.296 279.953c-45.396-45.264-108.029-73.314-177.276-73.314-69.245 0-131.878 28.050-177.273 73.315-45.339 45.26-73.383 107.853-73.383 176.984 0 69.071 28.045 131.665 73.442 176.925 45.339 45.324 107.971 73.315 177.216 73.315 69.247 0 131.881-27.992 177.276-73.315 45.341-45.26 73.379-107.853 73.379-176.925 0.004-69.131-28.041-131.724-73.38-176.985v0 0zM805.91 240.289c-8.618 8.605-8.618 22.573 0 31.176 8.679 8.607 22.611 8.607 31.232 0l89.783-89.578c8.621-8.663 8.621-22.571 0-31.234-8.614-8.611-22.605-8.611-31.226 0l-89.789 89.637zM816.003 123.714c0 12.142 9.918 22.044 22.139 22.044 12.162 0 22.078-9.903 22.078-22.044v-122.17c0-18.094-7.499-34.655-19.537-46.68h0.059c-12.045-12.020-28.572-19.445-46.818-19.445l-634.488-0c-18.182 0-34.714 7.425-46.753 19.391l-0.062 0.118c-11.982 11.96-19.48 28.463-19.48 46.617l0 726.38c0 18.21 7.439 34.772 19.42 46.733 12.044 11.967 28.572 19.391 46.875 19.391h228.457c-3.956 4.005-6.434 9.547-6.434 15.621 0 12.137 9.917 22.041 22.079 22.041h146.285c12.162 0 22.077-9.904 22.077-22.041 0-6.073-2.476-11.616-6.491-15.621h228.515c18.247 0 34.832-7.424 46.818-19.391 11.979-11.96 19.478-28.524 19.478-46.733v-46.090c0-12.202-9.916-22.041-22.078-22.041-12.22 0-22.139 9.839-22.139 22.041v46.090c0 6.011-2.476 11.552-6.492 15.557-4.014 4.009-9.503 6.484-15.587 6.484h-634.488c-6.084 0-11.63-2.473-15.586-6.484-4.013-4.005-6.552-9.489-6.552-15.557v-726.379c0-6.070 2.538-11.61 6.494-15.557 4.013-4.010 9.561-6.484 15.644-6.484h634.488c6.026 0 11.574 2.533 15.587 6.543v-0.064l0.059 0.064c3.956 3.946 6.433 9.429 6.433 15.499l0 122.168zM816.003 123.714z"  horiz-adv-x="1024" />

    
    <glyph glyph-name="tripple-up" unicode="&#58929;" d="M273.669 265.204l238.576 238.087 238.087-238.576z"  horiz-adv-x="1024" />

    
    <glyph glyph-name="arrowup" unicode="&#58930;" d="M723.552 491.956 538.953 752.632c-7.031 9.929-22.603 13.331-34.782 7.598-4.955-2.332-8.583-5.817-10.673-9.799-0.907-0.892-1.754-1.84-2.489-2.878L306.411 486.878c-7.031-9.929-2.859-22.625 9.32-28.357 12.178-5.732 27.75-2.331 34.782 7.598l142.89 201.778 0-623.51c0-14.021 11.366-25.387 25.387-25.387 14.021 0 25.387 11.366 25.387 25.387L544.177 662.221 679.45 471.197c7.031-9.929 22.603-13.331 34.782-7.598C726.41 469.331 730.583 482.027 723.552 491.956z"  horiz-adv-x="1024" />

    
    <glyph glyph-name="arrowdown" unicode="&#58931;" d="M723.552 290.059 538.953 29.383c-7.031-9.929-22.603-13.331-34.782-7.598-4.955 2.332-8.583 5.817-10.673 9.799-0.907 0.892-1.754 1.84-2.489 2.878L306.411 295.138c-7.031 9.929-2.859 22.625 9.32 28.357 12.178 5.732 27.75 2.331 34.782-7.598l142.89-201.778 0 623.51c0 14.021 11.366 25.387 25.387 25.387 14.021 0 25.387-11.366 25.387-25.387l0-617.834L679.45 310.818c7.031 9.929 22.603 13.331 34.782 7.598C726.41 312.684 730.583 299.988 723.552 290.059z"  horiz-adv-x="1024" />

    
    <glyph glyph-name="yinlian" unicode="&#58934;" d="M1856 642.56c10.24-20.48 7.68-17.92 20.48-20.48h30.72c-7.68 10.24-12.8 30.72-17.92 38.4-2.56 5.12-7.68 5.12-12.8 5.12H1843.2c5.12-5.12 7.68-15.36 12.8-23.04zM1228.8 327.68z m10.24 0H1228.8h10.24zM235.52 709.12h258.56c15.36 0 33.28-7.68 43.52-20.48 10.24-12.8 12.8-30.72 7.68-46.08l-120.32-519.68c-10.24-38.4-43.52-64-81.92-66.56H81.92c-15.36 0-33.28 7.68-43.52 20.48-10.24 12.8-12.8 30.72-7.68 46.08L153.6 642.56c10.24 38.4 43.52 64 81.92 66.56zM473.6 709.12h296.96c35.84 0 20.48-30.72 10.24-66.56l-120.32-519.68c-7.68-35.84-5.12-66.56-40.96-66.56H320c-15.36 0-33.28 7.68-43.52 20.48-10.24 12.8-12.8 30.72-7.68 46.08l120.32 519.68c12.8 38.4 46.08 64 84.48 66.56zM760.32 709.12h258.56c15.36 0 33.28-7.68 43.52-20.48 10.24-12.8 12.8-30.72 7.68-46.08l-120.32-519.68c-10.24-38.4-43.52-64-81.92-66.56H609.28c-15.36 0-33.28 7.68-43.52 20.48-10.24 12.8-12.8 30.72-7.68 46.08l120.32 519.68c10.24 38.4 43.52 64 81.92 66.56zM716.8 220.16h25.6l7.68 23.04h-25.6l-7.68-23.04z m17.92 66.56l-7.68-28.16c5.12 2.56 10.24 5.12 15.36 5.12 5.12 2.56 12.8 2.56 12.8 2.56l5.12 20.48h-25.6z m12.8 38.4l-7.68-28.16c5.12 2.56 10.24 5.12 12.8 7.68 5.12 0 7.68 2.56 12.8 2.56l5.12 20.48-23.04-2.56z m53.76 0l-30.72-104.96h7.68l-7.68-20.48h-7.68l-2.56-7.68h-30.72l2.56 7.68h-61.44l5.12 20.48h5.12l33.28 107.52 7.68 20.48h30.72l-2.56-10.24 15.36 7.68c7.68 2.56 51.2 2.56 51.2 2.56l-7.68-20.48-7.68-2.56zM816.64 348.16h33.28v-12.8c0-2.56 2.56-2.56 5.12-2.56h7.68l-5.12-20.48h-17.92c-15.36 0-20.48 5.12-20.48 12.8l-2.56 23.04z m2.56-97.28h-30.72l5.12 17.92h35.84l5.12 15.36h-35.84l5.12 20.48h97.28l-5.12-20.48h-33.28l-5.12-15.36h33.28l-5.12-17.92h-35.84l-5.12-7.68h15.36l2.56-23.04v-5.12c2.56 0 5.12-2.56 7.68 0h5.12l-5.12-20.48h-17.92c-2.56 0-5.12 2.56-7.68 2.56-2.56 2.56-5.12 5.12-5.12 7.68l-2.56 23.04-20.48-23.04c-5.12-7.68-15.36-12.8-23.04-12.8h-23.04l5.12 20.48h7.68c2.56 0 5.12 0 5.12 2.56 2.56 0 2.56 2.56 5.12 5.12l25.6 30.72z m-340.48 51.2h81.92l-5.12-20.48h-33.28l-5.12-17.92h33.28l-5.12-20.48H512l-7.68-28.16c0-2.56 7.68-2.56 10.24-2.56l17.92 2.56-7.68-23.04h-46.08c-2.56 0-5.12 2.56-5.12 5.12-2.56 2.56-2.56 5.12-2.56 7.68l10.24 35.84H460.8l5.12 20.48h20.48l5.12 17.92h-20.48l7.68 23.04z m53.76 33.28h33.28l-5.12-20.48h-46.08l-5.12-5.12c-2.56 0-2.56-2.56-5.12-2.56-5.12-2.56-10.24-5.12-15.36-5.12h-15.36l5.12 20.48h12.8c2.56 2.56 5.12 5.12 5.12 7.68l7.68 15.36H537.6l-5.12-10.24zM599.04 302.08c7.68 5.12 15.36 10.24 25.6 10.24h25.6l2.56 10.24h-48.64l-5.12-20.48z m43.52-7.68h-48.64l-2.56-10.24h46.08l5.12 10.24z m-61.44 53.76h28.16l-2.56-15.36c5.12 2.56 10.24 7.68 15.36 10.24 7.68 2.56 12.8 2.56 20.48 5.12h46.08l-15.36-53.76c-2.56-5.12-5.12-12.8-7.68-17.92l-7.68-7.68c-2.56-2.56-7.68-2.56-10.24-2.56H588.8l-12.8-40.96v-7.68c0-2.56 2.56-2.56 5.12-2.56l20.48 2.56-7.68-23.04h-38.4c-2.56 0-7.68 0-10.24 2.56-2.56 2.56-5.12 5.12-5.12 7.68 0 2.56 2.56 7.68 2.56 10.24l38.4 133.12zM665.6 261.12l-2.56-12.8c0-2.56-2.56-7.68-5.12-10.24-5.12-5.12-10.24-5.12-15.36-5.12h-15.36v-15.36c0-5.12 0-2.56 2.56-5.12 0 0 2.56 0 2.56-2.56h20.48l-7.68-20.48h-17.92c-7.68 0-17.92 0-25.6 2.56-2.56 2.56-5.12 5.12-2.56 7.68V256h28.16v-10.24h12.8l2.56 2.56 2.56 10.24 20.48 2.56m-399.36 281.6c0-5.12-20.48-87.04-20.48-87.04 0-12.8-7.68-25.6-15.36-35.84-5.12-5.12-12.8-7.68-20.48-7.68-5.12 0-10.24 0-12.8 5.12-2.56 2.56-5.12 7.68-5.12 12.8V435.2l2.56 23.04s20.48 76.8 23.04 87.04H174.08v-5.12L153.6 455.68l-2.56-7.68-2.56-23.04c0-5.12 0-12.8 5.12-17.92 7.68-15.36 33.28-17.92 48.64-17.92 15.36 0 33.28 2.56 46.08 10.24 17.92 10.24 28.16 28.16 30.72 48.64l2.56 7.68s20.48 79.36 23.04 89.6c-15.36-2.56-28.16-2.56-38.4-2.56z m107.52-156.16h-33.28l5.12 17.92 2.56 7.68c2.56 12.8 5.12 25.6 5.12 30.72v5.12c0 2.56-2.56 2.56-5.12 2.56s-7.68-2.56-10.24-2.56c-2.56-7.68-5.12-25.6-7.68-33.28-2.56-17.92-5.12-20.48-5.12-28.16h-33.28l7.68 30.72c5.12 17.92 7.68 35.84 10.24 53.76 15.36 2.56 20.48 2.56 35.84 5.12l2.56-2.56-2.56-10.24c2.56 2.56 5.12 2.56 7.68 5.12 7.68 2.56 12.8 5.12 20.48 5.12 7.68 0 15.36-2.56 17.92-10.24 2.56-10.24 2.56-23.04-2.56-33.28l-5.12-5.12c-5.12-20.48-5.12-23.04-7.68-38.4h-2.56m51.2 0h-35.84c0 5.12 2.56 10.24 2.56 12.8 2.56 5.12 2.56 7.68 2.56 12.8 2.56 10.24 2.56 17.92 5.12 23.04 0 5.12 2.56 10.24 2.56 17.92l17.92 2.56 17.92 2.56c-2.56-5.12-2.56-12.8-5.12-20.48l2.56-15.36c-2.56-12.8-5.12-17.92-5.12-20.48 0-5.12 0-7.68-5.12-15.36m84.48 46.08c-2.56-7.68-5.12-15.36-7.68-20.48-2.56-2.56-5.12-5.12-10.24-5.12-2.56 0-5.12 0-5.12 2.56-2.56 2.56-2.56 5.12-2.56 7.68 0 5.12 0 10.24 2.56 15.36 2.56 15.36 7.68 28.16 17.92 28.16 10.24-2.56 7.68-12.8 5.12-28.16z m33.28 0c5.12 12.8 2.56 25.6-2.56 35.84-7.68 7.68-20.48 12.8-30.72 10.24-15.36 0-28.16-5.12-38.4-12.8-10.24-10.24-15.36-20.48-17.92-33.28-2.56-12.8-5.12-33.28 15.36-43.52 7.68-2.56 12.8-2.56 20.48-2.56 15.36 0 30.72 5.12 40.96 15.36 5.12 7.68 10.24 17.92 12.8 30.72z m340.48 46.08c-15.36-2.56-20.48-2.56-35.84-5.12v-2.56c-2.56 5.12-7.68 7.68-10.24 10.24-12.8 2.56-28.16-2.56-38.4-12.8-10.24-10.24-15.36-20.48-17.92-33.28-2.56-12.8-5.12-33.28 15.36-40.96 5.12-2.56 12.8-2.56 17.92-2.56 7.68 0 12.8 2.56 17.92 7.68l-2.56-5.12h38.4c2.56 12.8 5.12 25.6 10.24 53.76l5.12 30.72m-51.2-69.12c-2.56-2.56-7.68-5.12-12.8-5.12-2.56 0-5.12 0-5.12 2.56-2.56 2.56-2.56 5.12-2.56 7.68 0 5.12 0 10.24 2.56 15.36 2.56 15.36 7.68 28.16 17.92 28.16 7.68 0 10.24-5.12 10.24-15.36l-2.56-7.68c0-5.12-2.56-7.68-2.56-12.8-2.56-7.68-5.12-10.24-5.12-12.8z m-199.68-23.04h-33.28l5.12 17.92 2.56 7.68c2.56 12.8 5.12 25.6 5.12 30.72v5.12c0 2.56-2.56 2.56-5.12 2.56s-7.68-2.56-10.24-2.56c-2.56-7.68-5.12-25.6-7.68-33.28-2.56-17.92-5.12-20.48-5.12-28.16h-33.28l7.68 30.72c5.12 17.92 7.68 35.84 10.24 53.76 15.36 2.56 20.48 2.56 35.84 5.12l2.56-2.56-2.56-10.24 7.68 5.12c7.68 2.56 12.8 5.12 20.48 5.12 7.68 0 15.36-2.56 17.92-10.24 2.56-12.8 0-23.04-2.56-33.28l-2.56-10.24c-5.12-20.48-5.12-23.04-7.68-38.4l-5.12 5.12m112.64 156.16H691.2l-2.56-5.12-10.24-46.08-25.6-104.96H691.2c0 5.12 7.68 33.28 7.68 33.28l5.12 20.48 2.56 2.56h2.56c23.04-2.56 43.52 2.56 64 12.8 12.8 10.24 23.04 25.6 25.6 40.96 0 5.12 2.56 10.24 2.56 15.36 0 7.68-2.56 12.8-5.12 17.92-7.68 12.8-28.16 12.8-51.2 12.8z m15.36-48.64c-2.56-10.24-7.68-17.92-17.92-23.04-7.68-2.56-15.36-5.12-25.6-5.12h-5.12v2.56l10.24 46.08v5.12h5.12l23.04-2.56c10.24-2.56 12.8-12.8 10.24-23.04z m-320-25.6c7.68 5.12 10.24 15.36 2.56 17.92-10.24 2.56-20.48 2.56-28.16-5.12-7.68-5.12-10.24-15.36-2.56-17.92 10.24-5.12 20.48-2.56 28.16 5.12z m550.4 10.24c-17.92-2.56-20.48-2.56-35.84-5.12-10.24-25.6-10.24-20.48-20.48-38.4l-2.56 43.52-2.56 2.56c-17.92-2.56-17.92-2.56-33.28-5.12v-2.56c2.56-7.68 2.56-15.36 2.56-23.04 0-7.68 2.56-15.36 2.56-23.04 2.56-12.8 2.56-20.48 5.12-38.4-10.24-17.92-12.8-23.04-23.04-38.4l-7.68-10.24-2.56-2.56h-10.24l-5.12-20.48h20.48c10.24-2.56 20.48 2.56 25.6 12.8l12.8 23.04 2.56 2.56c10.24 10.24 74.24 122.88 71.68 122.88zM2490.88 481.28c10.24-20.48 10.24-20.48 23.04-20.48h35.84c-7.68 10.24-25.6 58.88-30.72 66.56-5.12 5.12-10.24 7.68-15.36 7.68h-33.28s12.8-33.28 20.48-53.76zM2662.4 665.6h-40.96l-12.8-51.2h-168.96l-5.12-23.04h168.96v-2.56l-48.64-207.36c0-7.68-2.56-15.36-7.68-20.48-5.12-7.68-15.36-10.24-25.6-10.24h-61.44v-12.8c5.12-7.68 12.8-12.8 23.04-10.24h71.68c15.36 0 28.16 10.24 30.72 23.04l56.32 240.64h38.4c2.56 5.12 2.56 10.24 0 15.36-5.12 5.12-12.8 7.68-20.48 7.68h-12.8l15.36 51.2zM2329.6 327.68h40.96l51.2 227.84c10.24 17.92 23.04 40.96 38.4 69.12 5.12 10.24 17.92 30.72 20.48 33.28l5.12 7.68h-40.96l-2.56-5.12c-17.92-33.28-40.96-74.24-53.76-94.72-20.48-33.28-40.96-53.76-53.76-58.88l-5.12-25.6h5.12c12.8 0 23.04 2.56 33.28 7.68L2329.6 327.68zM1914.88 591.36c0 5.12 0 7.68-2.56 12.8s-10.24 10.24-17.92 10.24h-153.6c-10.24 0-17.92-5.12-25.6-10.24l-2.56-2.56c-15.36-17.92-51.2-56.32-61.44-66.56h-35.84l15.36 17.92c20.48 25.6 104.96 117.76 104.96 117.76h-30.72c-2.56 0-7.68 0-10.24-2.56-5.12-2.56-10.24-7.68-12.8-10.24-2.56-5.12-64-74.24-89.6-104.96-5.12-5.12-7.68-10.24-7.68-15.36-2.56-5.12 0-12.8 2.56-17.92 5.12-5.12 10.24-7.68 15.36-5.12h33.28c-35.84-38.4-53.76-58.88-71.68-76.8-5.12-5.12-7.68-12.8-7.68-20.48 0-7.68 2.56 10.24 0 2.56-5.12-15.36 20.48-17.92 20.48-17.92h79.36c7.68 0 12.8 2.56 17.92 7.68 2.56 5.12 5.12 10.24 5.12 15.36h-84.48s115.2 130.56 133.12 148.48c7.68 10.24 20.48 17.92 33.28 20.48l153.6-2.56zM1894.4 509.44c2.56 5.12 0 10.24 0 15.36-2.56 5.12-7.68 7.68-15.36 7.68h-148.48c-7.68 0-12.8-5.12-17.92-10.24-2.56-2.56-5.12-7.68-5.12-12.8H1894.4zM1866.24 335.36c5.12 5.12 7.68 10.24 10.24 15.36H1817.6c-5.12 0-10.24 0-12.8 5.12-2.56 2.56-5.12 7.68-5.12 12.8l25.6 296.96h-40.96l-25.6-302.08c-2.56-17.92 5.12-38.4 48.64-38.4h38.4c5.12 2.56 12.8 5.12 20.48 10.24z m384 0c5.12 5.12 7.68 10.24 10.24 15.36-10.24 2.56-23.04 2.56-33.28 5.12-33.28 15.36-64 35.84-89.6 58.88 33.28 20.48 66.56 38.4 97.28 58.88 12.8 10.24 20.48 23.04 20.48 38.4 0 10.24-10.24 20.48-23.04 20.48H2150.4l15.36 56.32h135.68c2.56 5.12 2.56 12.8-2.56 17.92-5.12 5.12-10.24 7.68-15.36 7.68h-112.64l12.8 51.2h-43.52l-15.36-51.2h-115.2c-7.68 0-12.8-2.56-17.92-5.12-5.12-5.12-7.68-10.24-10.24-17.92h138.24l-12.8-56.32h-87.04c-7.68 0-15.36-2.56-20.48-7.68l-7.68-15.36H2201.6c5.12 0 12.8-10.24-5.12-20.48-33.28-20.48-71.68-40.96-87.04-51.2-2.56 2.56-28.16 23.04-46.08 38.4-7.68 2.56-15.36 7.68-23.04 7.68H1996.8l74.24-69.12c-20.48-12.8-40.96-25.6-66.56-38.4-15.36-10.24-33.28-17.92-51.2-20.48l-38.4-5.12c0-5.12 0-10.24 2.56-15.36 2.56-5.12 7.68-7.68 12.8-7.68h33.28c23.04 7.68 46.08 17.92 69.12 30.72 28.16 12.8 48.64 25.6 66.56 35.84 2.56-2.56 81.92-56.32 99.84-64h35.84c2.56-2.56 10.24 0 15.36 2.56z m-770.56 15.36h-94.72l25.6 110.08h76.8c2.56 5.12 2.56 12.8 0 17.92-5.12 5.12-12.8 7.68-20.48 5.12h-51.2L1433.6 563.2h-43.52l-17.92-79.36h-48.64c-7.68 0-15.36 0-23.04-5.12-5.12-5.12-7.68-10.24-7.68-17.92h74.24l-25.6-110.08h-69.12c-7.68 0-15.36 5.12-20.48 12.8-2.56 5.12-2.56 12.8 0 17.92l30.72 133.12 66.56 79.36h184.32c2.56 5.12 0 10.24-2.56 15.36-5.12 5.12-10.24 7.68-17.92 7.68h-143.36l7.68 7.68L1415.68 665.6h-48.64c-5.12-5.12-38.4-46.08-43.52-51.2h-71.68c-5.12 0-12.8-2.56-17.92-5.12-7.68-5.12-10.24-12.8-12.8-20.48h81.92c-76.8-94.72-79.36-102.4-112.64-120.32 0 0-5.12-20.48-5.12-23.04 17.92 5.12 33.28 15.36 46.08 25.6L1203.2 348.16c0-5.12 0-12.8 5.12-17.92 5.12-5.12 12.8-7.68 17.92-7.68h217.6c10.24 0 20.48 2.56 25.6 10.24 7.68 7.68 10.24 12.8 10.24 17.92z m189.44 7.68c-5.12-7.68-12.8-10.24-20.48-12.8l-115.2-20.48c2.56 10.24 5.12 17.92 12.8 25.6 5.12 5.12 12.8 10.24 20.48 10.24l110.08 10.24c-2.56-2.56-5.12-7.68-7.68-12.8zM1843.2 483.84c-10.24-17.92-20.48-33.28-35.84-48.64-7.68-7.68-17.92-12.8-28.16-12.8h-61.44c-7.68 0-15.36-2.56-23.04-5.12-5.12-5.12-10.24-10.24-10.24-17.92h51.2c58.88 0 74.24 0 102.4 23.04 17.92 17.92 35.84 38.4 48.64 61.44H1843.2M1159.68 163.84c2.56 12.8 7.68 23.04 12.8 33.28 5.12 7.68 10.24 12.8 15.36 17.92 5.12 5.12 12.8 10.24 20.48 12.8 10.24 2.56 20.48 5.12 28.16 5.12 15.36 2.56 30.72-5.12 40.96-17.92 10.24-15.36 10.24-33.28 5.12-48.64-2.56-20.48-12.8-35.84-28.16-48.64-12.8-12.8-30.72-17.92-51.2-17.92-15.36-2.56-30.72 5.12-40.96 17.92-7.68 12.8-10.24 30.72-2.56 46.08z m25.6 0c-2.56-10.24-2.56-23.04 2.56-33.28 5.12-7.68 15.36-12.8 23.04-10.24 10.24 0 20.48 5.12 28.16 10.24 10.24 10.24 15.36 20.48 17.92 35.84 2.56 10.24 2.56 23.04-2.56 33.28-5.12 7.68-15.36 12.8-23.04 10.24-10.24 0-20.48-5.12-28.16-10.24-7.68-10.24-15.36-20.48-17.92-35.84z m192-64h-25.6l10.24 48.64c2.56 5.12 2.56 12.8 2.56 20.48 0 2.56-2.56 5.12-2.56 7.68-2.56 2.56-5.12 2.56-7.68 2.56-5.12 0-7.68 0-12.8-2.56s-7.68-5.12-10.24-10.24l-7.68-23.04-10.24-43.52h-25.6l23.04 94.72h23.04l-2.56-12.8c7.68 10.24 20.48 15.36 35.84 15.36 5.12 0 10.24 0 15.36-2.56 2.56-2.56 7.68-5.12 7.68-7.68 2.56-2.56 2.56-7.68 2.56-10.24 0-5.12 0-10.24-2.56-17.92l-12.8-58.88m25.6 0L1433.6 230.4h25.6l-30.72-130.56h-25.6m51.2 0l23.04 94.72h25.6l-23.04-94.72h-25.6m23.04 107.52l5.12 23.04h25.6l-5.12-23.04h-25.6m112.64-107.52h-25.6l10.24 48.64c2.56 5.12 2.56 12.8 2.56 20.48 0 2.56-2.56 5.12-2.56 7.68-2.56 2.56-5.12 2.56-7.68 2.56-5.12 0-7.68 0-12.8-2.56s-7.68-5.12-10.24-10.24l-7.68-23.04-10.24-43.52h-25.6l23.04 94.72h23.04l-2.56-12.8c7.68 10.24 20.48 15.36 35.84 15.36 5.12 0 10.24 0 15.36-2.56 2.56-2.56 7.68-5.12 7.68-7.68 2.56-2.56 2.56-7.68 2.56-10.24 0-5.12 0-10.24-2.56-17.92l-12.8-58.88m87.04 30.72l23.04-5.12c-5.12-7.68-10.24-15.36-20.48-20.48-7.68-5.12-17.92-7.68-28.16-7.68-12.8-2.56-25.6 5.12-33.28 15.36-5.12 10.24-5.12 23.04-2.56 33.28 2.56 15.36 10.24 28.16 20.48 35.84 10.24 7.68 20.48 12.8 33.28 12.8s23.04-5.12 30.72-12.8c5.12-12.8 7.68-28.16 2.56-43.52H1638.4c-2.56-5.12 0-12.8 2.56-17.92 2.56-5.12 7.68-5.12 12.8-5.12 2.56 0 7.68 0 10.24 2.56 7.68 5.12 10.24 7.68 12.8 12.8z m7.68 25.6c2.56 5.12 0 10.24-2.56 15.36-2.56 2.56-7.68 5.12-12.8 5.12s-10.24-2.56-15.36-5.12c-5.12-5.12-7.68-10.24-10.24-15.36h40.96m133.12-56.32l30.72 130.56h40.96c10.24 0 20.48 0 30.72-2.56 7.68-2.56 12.8-7.68 15.36-12.8 2.56-7.68 5.12-17.92 2.56-25.6-2.56-7.68-5.12-12.8-10.24-20.48-7.68-10.24-17.92-17.92-28.16-20.48-10.24-2.56-17.92-2.56-28.16-2.56h-17.92l-10.24-46.08h-25.6m51.2 110.08l-7.68-35.84h15.36c7.68 0 15.36 0 20.48 2.56 2.56 2.56 7.68 2.56 10.24 7.68 2.56 2.56 5.12 7.68 5.12 10.24 0 5.12 0 7.68-2.56 12.8-2.56 2.56-5.12 5.12-10.24 5.12h-20.48l-10.24-2.56m104.96-43.52l-23.04 5.12c5.12 7.68 10.24 15.36 17.92 20.48 10.24 5.12 20.48 7.68 30.72 7.68 7.68 0 15.36 0 23.04-5.12 5.12-2.56 7.68-5.12 10.24-10.24 0-7.68 0-15.36-2.56-23.04l-7.68-28.16c-2.56-5.12-2.56-12.8-2.56-17.92 0-5.12 0-7.68 2.56-12.8h-25.6v7.68 2.56c-5.12-5.12-10.24-7.68-15.36-10.24-5.12-2.56-10.24-2.56-15.36-2.56-7.68 0-15.36 2.56-20.48 7.68-5.12 5.12-5.12 12.8-2.56 20.48 0 5.12 2.56 10.24 7.68 15.36 2.56 5.12 7.68 7.68 12.8 10.24 7.68 2.56 12.8 5.12 20.48 5.12 7.68 2.56 17.92 2.56 25.6 5.12v2.56c2.56 2.56 0 7.68 0 10.24-2.56 2.56-7.68 2.56-12.8 2.56-2.56 0-7.68 0-10.24-2.56-7.68-5.12-10.24-7.68-12.8-10.24z m28.16-20.48c-5.12-2.56-10.24-2.56-15.36-2.56-5.12 0-10.24-2.56-15.36-5.12l-7.68-7.68c0-2.56 0-7.68 2.56-10.24 2.56-2.56 5.12-5.12 10.24-2.56 5.12 0 10.24 2.56 12.8 5.12l7.68 7.68c2.56 5.12 2.56 7.68 2.56 12.8l2.56 2.56m48.64 48.64h25.6l7.68-66.56 38.4 66.56h25.6L2094.08 102.4l-10.24-15.36c-2.56-5.12-5.12-7.68-10.24-12.8l-7.68-7.68c-2.56-2.56-7.68-2.56-10.24-5.12-5.12 0-7.68-2.56-12.8-2.56s-10.24 0-12.8 2.56l2.56 20.48h10.24c5.12 0 10.24 2.56 15.36 5.12 2.56 2.56 7.68 7.68 10.24 12.8l-17.92 94.72m112.64 0h23.04l-2.56-12.8c7.68 10.24 20.48 15.36 33.28 15.36 5.12 0 10.24 0 15.36-2.56 5.12-2.56 7.68-7.68 7.68-10.24 5.12 5.12 10.24 7.68 15.36 10.24 5.12 2.56 10.24 2.56 15.36 2.56 5.12 0 12.8 0 17.92-5.12 5.12-2.56 7.68-7.68 7.68-12.8 0-7.68 0-12.8-2.56-20.48l-12.8-61.44h-25.6l12.8 53.76c2.56 5.12 2.56 12.8 2.56 17.92-2.56 2.56-5.12 5.12-10.24 5.12-2.56 0-7.68 0-10.24-2.56-2.56-2.56-7.68-5.12-7.68-10.24-2.56-5.12-5.12-12.8-7.68-20.48l-10.24-46.08h-25.6l12.8 51.2c2.56 5.12 2.56 12.8 2.56 17.92 0 2.56 0 5.12-2.56 5.12-2.56 2.56-5.12 2.56-7.68 2.56-5.12 0-7.68 0-10.24-2.56-2.56-2.56-7.68-5.12-7.68-10.24-2.56-5.12-5.12-12.8-7.68-20.48l-10.24-46.08h-25.6l20.48 102.4m204.8-64l23.04-5.12c-5.12-7.68-10.24-15.36-20.48-20.48-7.68-5.12-17.92-7.68-28.16-7.68-12.8-2.56-25.6 5.12-33.28 15.36-5.12 10.24-5.12 23.04-2.56 33.28 2.56 15.36 10.24 28.16 20.48 35.84 10.24 7.68 20.48 12.8 33.28 12.8s23.04-5.12 30.72-12.8c5.12-12.8 7.68-28.16 2.56-43.52H2329.6c-2.56-5.12 0-12.8 2.56-17.92 2.56-5.12 7.68-5.12 12.8-5.12 2.56 0 7.68 0 10.24 2.56 7.68 5.12 10.24 7.68 12.8 12.8z m7.68 25.6c2.56 5.12 0 10.24-2.56 15.36-2.56 2.56-7.68 5.12-12.8 5.12s-10.24-2.56-15.36-5.12c-5.12-5.12-7.68-10.24-10.24-15.36h40.96m117.76-56.32h-25.6l10.24 48.64c2.56 5.12 2.56 12.8 2.56 20.48 0 2.56-2.56 5.12-2.56 7.68-2.56 2.56-5.12 2.56-7.68 2.56-5.12 0-7.68 0-12.8-2.56s-7.68-5.12-10.24-10.24l-7.68-23.04-7.68-43.52h-25.6l23.04 94.72h23.04l-2.56-12.8c7.68 10.24 20.48 15.36 35.84 15.36 5.12 0 10.24 0 15.36-2.56 2.56-2.56 7.68-5.12 7.68-7.68v-10.24c0-5.12 0-10.24-2.56-17.92l-12.8-58.88m92.16 94.72l-5.12-20.48h-17.92l-7.68-38.4c0-5.12-2.56-10.24-2.56-12.8 0 0 0-2.56 2.56-2.56h5.12c2.56 0 7.68 0 10.24 2.56l-2.56-20.48c-7.68-2.56-12.8-2.56-20.48-2.56-5.12 0-7.68 0-12.8 2.56-2.56 0-5.12 2.56-7.68 5.12 0 2.56-2.56 7.68 0 10.24 0 5.12 2.56 12.8 2.56 17.92l10.24 40.96h-10.24l5.12 20.48h12.8l5.12 33.28h25.6l-7.68-33.28 15.36-2.56"  horiz-adv-x="2713" />

    
    <glyph glyph-name="chenggong1" unicode="&#59233;" d="M510.173867 896c284.347733 0 513.024-228.795733 513.024-510.907733 0-282.257067-229.102933-510.907733-511.598934-510.907734C228.9664-125.815467 0 102.980267 0 385.092267S225.826133 896 510.173867 896z m326.8864-373.205333c20.548267 21.5296 20.548267 56.448 0.136533 77.832533-20.5568 21.5296-53.674667 21.5296-74.222933 0 0 0-319.607467-334.5664-319.607467-334.848L258.935467 431.1296c-20.5568 21.521067-53.674667 21.521067-74.222934 0-20.5568-21.384533-20.5568-56.311467 0-77.832533l222.685867-203.5712c14.839467-14.677333 49.8176-24.379733 78.08 3.848533 39.825067 39.773867 351.573333 369.211733 351.573333 369.211733z"  horiz-adv-x="1024" />

    
    <glyph glyph-name="xiayibu" unicode="&#59234;" d="M302.034365 896c15.471304 0 30.920348-6.41113 42.006261-18.988522L764.860104 400.918261a57.121391 57.121391 0 0 0-1.780869-77.467826L342.259757-109.990957a55.941565 55.941565 0 0 0-54.694957-16.339478 56.498087 56.498087 0 0 0-40.737391 40.269913c-5.342609 19.878957 0.422957 41.115826 15.048348 55.474087l384 395.531131L260.094887 801.480348a57.143652 57.143652 0 0 0-9.349565 60.972522A56.253217 56.253217 0 0 0 302.078887 896h-0.044522z"  horiz-adv-x="1024" />

    
    <glyph glyph-name="shibai" unicode="&#59235;" d="M511.778133 894.293333c282.624 0 511.7696-228.864 511.7696-511.146666S794.402133-128 511.778133-128 0 100.864 0 383.146667 229.154133 894.293333 511.778133 894.293333z m248.260267-695.944533L578.082133 380.2112l181.956267 181.870933a44.5184 44.5184 0 0 1 13.243733 31.6416 44.740267 44.740267 0 0 1-13.243733 31.650134 44.8512 44.8512 0 0 1-31.684267 13.218133 44.8512 44.8512 0 0 1-31.684266-13.226667L514.577067 443.511467 332.4928 625.373867a44.629333 44.629333 0 0 1-31.684267 13.218133 44.868267 44.868267 0 0 1-31.684266-13.226667 44.526933 44.526933 0 0 1-13.2352-31.6416c0-11.886933 4.8128-23.236267 13.226666-31.6416l182.229334-181.870933-182.084267-181.8624a44.765867 44.765867 0 0 1-13.243733-31.650133c0-11.8784 4.8128-23.227733 13.243733-31.650134a44.629333 44.629333 0 0 1 31.675733-13.2096 44.868267 44.868267 0 0 1 31.6928 13.2096L514.577067 316.928l182.101333-181.870933a44.868267 44.868267 0 0 1 31.675733-13.2096 44.868267 44.868267 0 0 1 31.684267 13.2096 44.765867 44.765867 0 0 1 13.243733 31.658666 44.765867 44.765867 0 0 1-13.243733 31.6416z"  horiz-adv-x="1024" />

    
    <glyph glyph-name="shijian" unicode="&#59236;" d="M511.7184 895.317333c282.564267 0 511.6416-229.034667 511.6416-511.6416C1023.36 101.077333 794.282667-128 511.7184-128 229.111467-128 0 101.077333 0 383.675733 0 666.282667 229.12 895.317333 511.7184 895.317333z m255.8976-568.1152c23.176533 0 41.949867 18.773333 41.949867 41.949867a41.9328 41.9328 0 0 1-41.949867 41.9584H537.941333V640.802133c0 23.176533-18.773333 41.949867-42.001066 41.949867a41.9328 41.9328 0 0 1-41.915734-41.949867v-271.684266a41.984 41.984 0 0 1 25.6-38.621867 41.642667 41.642667 0 0 1 16.315734-3.293867h271.684266z"  horiz-adv-x="1024" />

    
    <glyph glyph-name="shangchuan" unicode="&#59237;" d="M562.363782 632.250298s-92.863304 91.519314-218.942358 16.767874C230.62227 577.690707 250.558121 447.163686 250.558121 447.163686S0 397.30806 0 135.806021C5.631958-125.408019 272.093959-128 272.093959-128H691.514814v273.149951h-131.967011l221.854336 244.382168 221.854337-244.382168h-131.99901V-128h381.117141s248.03014-0.255998 282.877879 248.190139c16.575876 271.677962-239.710202 325.245561-239.710203 325.24556S1324.694065 847.672682 964.760764 893.528339C656.251078 925.752097 562.363782 632.250298 562.363782 632.250298z"  horiz-adv-x="1535" />

    
    <glyph glyph-name="dengji_L" unicode="&#59238;" d="M521.545143 758.454857l-197.851429-348.196571L116.297143 581.12C133.851429 593.846857 146.285714 614.4 146.285714 640c0 36.571429-36.571429 73.142857-73.142857 73.142857s-73.142857-29.257143-73.142857-73.142857 36.571429-73.142857 73.142857-73.142857c2.048 0 4.132571 0.109714 6.217143 0.292571L154.148571-32.182857C191.049143-83.748571 360.521143-128 559.542857-128c191.561143 0 353.682286 44.251429 397.897143 95.853714L1053.805714 567.222857c2.230857-0.219429 4.498286-0.329143 6.765715-0.329143 36.571429 0 73.142857 29.257143 73.142857 73.142857 0 36.571429-36.571429 73.142857-73.142857 73.142858s-73.142857-29.257143-73.142858-73.142858c0-28.16 14.994286-50.249143 35.474286-62.537142l-198.144-167.204572-232.667428 349.220572A72.045714 72.045714 0 0 1 629.028571 822.857143c0 36.571429-36.571429 73.142857-73.142857 73.142857s-73.142857-29.257143-73.142857-73.142857c0-29.622857 16.713143-52.662857 38.802286-64.402286z"  horiz-adv-x="1133" />

    
    <glyph glyph-name="zhengque" unicode="&#59239;" d="M286.336 424.064l138.88-276.032S650.816 708.992 1006.592 896c-8.64-133.568-43.328-249.344 17.408-391.808-156.224-35.584-477.312-436.288-581.44-632.192C295.04 59.008 121.472 201.472 0 245.952l286.336 178.112z"  horiz-adv-x="1024" />

    
    <glyph glyph-name="dengji_S" unicode="&#59240;" d="M463.2064 743.9872l-176.8448-364.3392L112.4352 525.312c27.5456 11.8272 49.2544 38.7072 49.2544 74.24 0 40.448-40.448 80.896-80.896 80.896C40.448 680.448 0 648.0384 0 599.552c0-40.2432 27.8016-69.3248 60.416-78.08l68.7104-559.104C163.2768-86.2208 320.512-128 505.1392-128c177.8176 0 328.192 41.728 369.2544 90.4192L962.816 521.216C995.7376 529.7152 1024 559.0016 1024 599.552c0 40.3968-40.448 80.7936-80.8448 80.7936-40.448 0-80.8448-32.3072-80.8448-80.7936 0-38.4 25.2928-66.6112 55.808-76.8l-166.8096-143.1552-208.4864 366.3872c22.6304 13.568 39.2192 37.9904 39.2192 69.12C582.0416 855.6032 541.696 896 501.248 896 460.8 896 420.4032 863.6416 420.4032 815.1552c0-32.768 18.432-58.112 42.8032-71.168z"  horiz-adv-x="1024" />

    
    <glyph glyph-name="bianji" unicode="&#59309;" d="M777.500444 476.273778L287.004444-14.222222H170.666667a113.777778 113.777778 0 0 0-113.777778 113.777778V782.222222a113.777778 113.777778 0 0 0 113.777778 113.777778h493.056a113.777778 113.777778 0 0 0 113.777777-113.777778v-305.948444zM218.055111 687.388444a28.444444 28.444444 0 1 1 0-56.888888h398.222222a28.444444 28.444444 0 0 1 0 56.888888h-398.222222z m0-151.665777a28.444444 28.444444 0 0 1 0-56.888889h398.222222a28.444444 28.444444 0 0 1 0 56.888889h-398.222222zM557.283556-38.115556l-107.121778 107.064889L768 386.730667l107.121778-107.064889-317.781334-317.781334z m-35.328-35.271111l-6.257778-6.257777a32.995556 32.995556 0 0 0-12.970667-7.964445l-120.32-39.537778a16.896 16.896 0 0 0-21.276444 21.276445l39.537777 120.263111a32.995556 32.995556 0 0 0 7.964445 13.084444l6.257778 6.200889 107.064889-107.121778z m388.380444 388.380445L803.271111 422.058667l47.104 47.104a33.450667 33.450667 0 0 0 47.331556-0.284445l59.448889-59.505778a33.450667 33.450667 0 0 0 0.284444-47.331555l-47.104-47.047111z"  horiz-adv-x="1024" />

    
    <glyph glyph-name="weirenzheng" unicode="&#58935;" d="M512 896a512 512 0 1 0 0-1024A512 512 0 0 0 512 896z m0-145.749333a39.367111 39.367111 0 0 1-39.367111-39.367111v-472.632889a39.367111 39.367111 0 1 1 78.734222 0V710.883556A39.367111 39.367111 0 0 1 512 750.250667zM512 25.6a51.2 51.2 0 1 1 0 102.4 51.2 51.2 0 0 1 0-102.4z"  horiz-adv-x="1024" />

    
    </font>
</defs>
</svg>
